%TF.GenerationSoftware,KiCad,Pcbnew,8.0.8*%
%TF.CreationDate,2025-02-09T20:42:27+01:00*%
%TF.ProjectId,railblock,7261696c-626c-46f6-936b-2e6b69636164,rev?*%
%TF.SameCoordinates,Original*%
%TF.FileFunction,Paste,Top*%
%TF.FilePolarity,Positive*%
%FSLAX46Y46*%
G04 Gerber Fmt 4.6, Leading zero omitted, Abs format (unit mm)*
G04 Created by KiCad (PCBNEW 8.0.8) date 2025-02-09 20:42:27*
%MOMM*%
%LPD*%
G01*
G04 APERTURE LIST*
G04 Aperture macros list*
%AMRoundRect*
0 Rectangle with rounded corners*
0 $1 Rounding radius*
0 $2 $3 $4 $5 $6 $7 $8 $9 X,Y pos of 4 corners*
0 Add a 4 corners polygon primitive as box body*
4,1,4,$2,$3,$4,$5,$6,$7,$8,$9,$2,$3,0*
0 Add four circle primitives for the rounded corners*
1,1,$1+$1,$2,$3*
1,1,$1+$1,$4,$5*
1,1,$1+$1,$6,$7*
1,1,$1+$1,$8,$9*
0 Add four rect primitives between the rounded corners*
20,1,$1+$1,$2,$3,$4,$5,0*
20,1,$1+$1,$4,$5,$6,$7,0*
20,1,$1+$1,$6,$7,$8,$9,0*
20,1,$1+$1,$8,$9,$2,$3,0*%
G04 Aperture macros list end*
%ADD10RoundRect,0.375000X-0.625000X-0.375000X0.625000X-0.375000X0.625000X0.375000X-0.625000X0.375000X0*%
%ADD11RoundRect,0.500000X-0.500000X-1.400000X0.500000X-1.400000X0.500000X1.400000X-0.500000X1.400000X0*%
%ADD12RoundRect,0.150000X-0.825000X-0.150000X0.825000X-0.150000X0.825000X0.150000X-0.825000X0.150000X0*%
%ADD13R,5.000000X5.000000*%
%ADD14R,2.300000X0.900000*%
%ADD15R,0.900000X2.300000*%
%ADD16RoundRect,0.150000X-0.150000X0.825000X-0.150000X-0.825000X0.150000X-0.825000X0.150000X0.825000X0*%
%ADD17RoundRect,0.150000X-0.150000X0.587500X-0.150000X-0.587500X0.150000X-0.587500X0.150000X0.587500X0*%
%ADD18RoundRect,0.237500X0.250000X0.237500X-0.250000X0.237500X-0.250000X-0.237500X0.250000X-0.237500X0*%
%ADD19RoundRect,0.237500X0.237500X-0.250000X0.237500X0.250000X-0.237500X0.250000X-0.237500X-0.250000X0*%
%ADD20RoundRect,0.237500X-0.300000X-0.237500X0.300000X-0.237500X0.300000X0.237500X-0.300000X0.237500X0*%
%ADD21RoundRect,0.250000X-0.337500X-0.475000X0.337500X-0.475000X0.337500X0.475000X-0.337500X0.475000X0*%
%ADD22RoundRect,0.237500X0.237500X-0.300000X0.237500X0.300000X-0.237500X0.300000X-0.237500X-0.300000X0*%
%ADD23RoundRect,0.250000X0.475000X-0.337500X0.475000X0.337500X-0.475000X0.337500X-0.475000X-0.337500X0*%
%ADD24RoundRect,0.237500X-0.237500X0.300000X-0.237500X-0.300000X0.237500X-0.300000X0.237500X0.300000X0*%
G04 APERTURE END LIST*
D10*
%TO.C,U6*%
X141020000Y-81520000D03*
X141020000Y-83820000D03*
D11*
X147320000Y-83820000D03*
D10*
X141020000Y-86120000D03*
%TD*%
%TO.C,U5*%
X158800000Y-78980000D03*
X158800000Y-81280000D03*
D11*
X165100000Y-81280000D03*
D10*
X158800000Y-83580000D03*
%TD*%
D12*
%TO.C,U4*%
X160020000Y-60295000D03*
X160020000Y-61565000D03*
X160020000Y-62835000D03*
X160020000Y-64105000D03*
X160020000Y-65375000D03*
X160020000Y-66645000D03*
X160020000Y-67915000D03*
X160020000Y-69185000D03*
X164970000Y-69185000D03*
X164970000Y-67915000D03*
X164970000Y-66645000D03*
X164970000Y-65375000D03*
X164970000Y-64105000D03*
X164970000Y-62835000D03*
X164970000Y-61565000D03*
X164970000Y-60295000D03*
%TD*%
D13*
%TO.C,U3*%
X138700000Y-57820000D03*
D14*
X148350000Y-50320000D03*
X148350000Y-51590000D03*
X148350000Y-52860000D03*
X148350000Y-54130000D03*
X148350000Y-55400000D03*
X148350000Y-56670000D03*
X148350000Y-57940000D03*
X148350000Y-59210000D03*
X148350000Y-60480000D03*
X148350000Y-61750000D03*
X148350000Y-63020000D03*
X148350000Y-64290000D03*
X148350000Y-65560000D03*
X148350000Y-66830000D03*
D15*
X145415000Y-67980000D03*
X144145000Y-67980000D03*
X142875000Y-67980000D03*
X141605000Y-67980000D03*
X140335000Y-67980000D03*
X139065000Y-67980000D03*
X137795000Y-67980000D03*
X136525000Y-67980000D03*
X135255000Y-67980000D03*
X133985000Y-67980000D03*
D14*
X131050000Y-66830000D03*
X131050000Y-65560000D03*
X131050000Y-64290000D03*
X131050000Y-63020000D03*
X131050000Y-61750000D03*
X131050000Y-60480000D03*
X131050000Y-59210000D03*
X131050000Y-57940000D03*
X131050000Y-56670000D03*
X131050000Y-55400000D03*
X131050000Y-54130000D03*
X131050000Y-52860000D03*
X131050000Y-51590000D03*
X131050000Y-50320000D03*
%TD*%
D16*
%TO.C,U2*%
X133985000Y-76265000D03*
X132715000Y-76265000D03*
X131445000Y-76265000D03*
X130175000Y-76265000D03*
X130175000Y-81215000D03*
X131445000Y-81215000D03*
X132715000Y-81215000D03*
X133985000Y-81215000D03*
%TD*%
D17*
%TO.C,U1*%
X133030000Y-87787000D03*
X131130000Y-87787000D03*
X132080000Y-89662000D03*
%TD*%
D18*
%TO.C,R27*%
X132912500Y-84582000D03*
X131087500Y-84582000D03*
%TD*%
%TO.C,R7*%
X123952000Y-88000000D03*
X122127000Y-88000000D03*
%TD*%
D19*
%TO.C,R6*%
X123952000Y-91452500D03*
X123952000Y-89627500D03*
%TD*%
D18*
%TO.C,R5*%
X124000000Y-72397000D03*
X122175000Y-72397000D03*
%TD*%
D19*
%TO.C,R4*%
X126746000Y-56134000D03*
X126746000Y-54309000D03*
%TD*%
%TO.C,R3*%
X124000000Y-76000000D03*
X124000000Y-74175000D03*
%TD*%
D18*
%TO.C,R2*%
X124968000Y-59690000D03*
X123143000Y-59690000D03*
%TD*%
%TO.C,R1*%
X123491000Y-56397000D03*
X121666000Y-56397000D03*
%TD*%
D20*
%TO.C,C15*%
X143817000Y-91694000D03*
X145542000Y-91694000D03*
%TD*%
D21*
%TO.C,C14*%
X143764000Y-89408000D03*
X145839000Y-89408000D03*
%TD*%
%TO.C,C13*%
X163025000Y-73660000D03*
X165100000Y-73660000D03*
%TD*%
D20*
%TO.C,C12*%
X163121000Y-76200000D03*
X164846000Y-76200000D03*
%TD*%
%TO.C,C10*%
X160427500Y-88392000D03*
X162152500Y-88392000D03*
%TD*%
%TO.C,C9*%
X131217500Y-73914000D03*
X132942500Y-73914000D03*
%TD*%
D22*
%TO.C,C8*%
X128016000Y-79756000D03*
X128016000Y-78031000D03*
%TD*%
D21*
%TO.C,C7*%
X160252500Y-86106000D03*
X162327500Y-86106000D03*
%TD*%
%TO.C,C6*%
X143742500Y-74930000D03*
X145817500Y-74930000D03*
%TD*%
D20*
%TO.C,C4*%
X143764000Y-77978000D03*
X145489000Y-77978000D03*
%TD*%
D23*
%TO.C,C3*%
X125476000Y-52070000D03*
X125476000Y-49995000D03*
%TD*%
D24*
%TO.C,C2*%
X126746000Y-57965000D03*
X126746000Y-59690000D03*
%TD*%
D22*
%TO.C,C1*%
X128270000Y-51763000D03*
X128270000Y-50038000D03*
%TD*%
M02*
