%TF.GenerationSoftware,KiCad,Pcbnew,8.0.8*%
%TF.CreationDate,2025-02-09T20:42:27+01:00*%
%TF.ProjectId,railblock,7261696c-626c-46f6-936b-2e6b69636164,rev?*%
%TF.SameCoordinates,Original*%
%TF.FileFunction,Legend,Top*%
%TF.FilePolarity,Positive*%
%FSLAX46Y46*%
G04 Gerber Fmt 4.6, Leading zero omitted, Abs format (unit mm)*
G04 Created by KiCad (PCBNEW 8.0.8) date 2025-02-09 20:42:27*
%MOMM*%
%LPD*%
G01*
G04 APERTURE LIST*
G04 Aperture macros list*
%AMRoundRect*
0 Rectangle with rounded corners*
0 $1 Rounding radius*
0 $2 $3 $4 $5 $6 $7 $8 $9 X,Y pos of 4 corners*
0 Add a 4 corners polygon primitive as box body*
4,1,4,$2,$3,$4,$5,$6,$7,$8,$9,$2,$3,0*
0 Add four circle primitives for the rounded corners*
1,1,$1+$1,$2,$3*
1,1,$1+$1,$4,$5*
1,1,$1+$1,$6,$7*
1,1,$1+$1,$8,$9*
0 Add four rect primitives between the rounded corners*
20,1,$1+$1,$2,$3,$4,$5,0*
20,1,$1+$1,$4,$5,$6,$7,0*
20,1,$1+$1,$6,$7,$8,$9,0*
20,1,$1+$1,$8,$9,$2,$3,0*%
G04 Aperture macros list end*
%ADD10C,0.200000*%
%ADD11C,0.150000*%
%ADD12C,0.120000*%
%ADD13C,3.250000*%
%ADD14R,1.500000X1.500000*%
%ADD15C,1.500000*%
%ADD16C,3.000000*%
%ADD17C,2.500000*%
%ADD18C,2.100000*%
%ADD19C,1.850000*%
%ADD20RoundRect,0.375000X-0.625000X-0.375000X0.625000X-0.375000X0.625000X0.375000X-0.625000X0.375000X0*%
%ADD21RoundRect,0.500000X-0.500000X-1.400000X0.500000X-1.400000X0.500000X1.400000X-0.500000X1.400000X0*%
%ADD22RoundRect,0.150000X-0.825000X-0.150000X0.825000X-0.150000X0.825000X0.150000X-0.825000X0.150000X0*%
%ADD23R,5.000000X5.000000*%
%ADD24R,2.300000X0.900000*%
%ADD25R,0.900000X2.300000*%
%ADD26RoundRect,0.150000X-0.150000X0.825000X-0.150000X-0.825000X0.150000X-0.825000X0.150000X0.825000X0*%
%ADD27RoundRect,0.150000X-0.150000X0.587500X-0.150000X-0.587500X0.150000X-0.587500X0.150000X0.587500X0*%
%ADD28RoundRect,0.237500X0.250000X0.237500X-0.250000X0.237500X-0.250000X-0.237500X0.250000X-0.237500X0*%
%ADD29RoundRect,0.237500X0.237500X-0.250000X0.237500X0.250000X-0.237500X0.250000X-0.237500X-0.250000X0*%
%ADD30C,2.000000*%
%ADD31C,2.800000*%
%ADD32C,3.200000*%
%ADD33RoundRect,0.237500X-0.300000X-0.237500X0.300000X-0.237500X0.300000X0.237500X-0.300000X0.237500X0*%
%ADD34RoundRect,0.250000X-0.337500X-0.475000X0.337500X-0.475000X0.337500X0.475000X-0.337500X0.475000X0*%
%ADD35RoundRect,0.237500X0.237500X-0.300000X0.237500X0.300000X-0.237500X0.300000X-0.237500X-0.300000X0*%
%ADD36RoundRect,0.250000X0.475000X-0.337500X0.475000X0.337500X-0.475000X0.337500X-0.475000X-0.337500X0*%
%ADD37RoundRect,0.237500X-0.237500X0.300000X-0.237500X-0.300000X0.237500X-0.300000X0.237500X0.300000X0*%
G04 APERTURE END LIST*
D10*
X132854435Y-117303112D02*
X133140149Y-117303112D01*
X133140149Y-117303112D02*
X133283006Y-117374541D01*
X133283006Y-117374541D02*
X133425863Y-117517398D01*
X133425863Y-117517398D02*
X133497292Y-117803112D01*
X133497292Y-117803112D02*
X133497292Y-118303112D01*
X133497292Y-118303112D02*
X133425863Y-118588826D01*
X133425863Y-118588826D02*
X133283006Y-118731684D01*
X133283006Y-118731684D02*
X133140149Y-118803112D01*
X133140149Y-118803112D02*
X132854435Y-118803112D01*
X132854435Y-118803112D02*
X132711578Y-118731684D01*
X132711578Y-118731684D02*
X132568720Y-118588826D01*
X132568720Y-118588826D02*
X132497292Y-118303112D01*
X132497292Y-118303112D02*
X132497292Y-117803112D01*
X132497292Y-117803112D02*
X132568720Y-117517398D01*
X132568720Y-117517398D02*
X132711578Y-117374541D01*
X132711578Y-117374541D02*
X132854435Y-117303112D01*
X134783007Y-117803112D02*
X134783007Y-118803112D01*
X134140149Y-117803112D02*
X134140149Y-118588826D01*
X134140149Y-118588826D02*
X134211578Y-118731684D01*
X134211578Y-118731684D02*
X134354435Y-118803112D01*
X134354435Y-118803112D02*
X134568721Y-118803112D01*
X134568721Y-118803112D02*
X134711578Y-118731684D01*
X134711578Y-118731684D02*
X134783007Y-118660255D01*
X135283007Y-117803112D02*
X135854435Y-117803112D01*
X135497292Y-117303112D02*
X135497292Y-118588826D01*
X135497292Y-118588826D02*
X135568721Y-118731684D01*
X135568721Y-118731684D02*
X135711578Y-118803112D01*
X135711578Y-118803112D02*
X135854435Y-118803112D01*
X136568721Y-118803112D02*
X136425864Y-118731684D01*
X136425864Y-118731684D02*
X136354435Y-118588826D01*
X136354435Y-118588826D02*
X136354435Y-117303112D01*
X137140149Y-118803112D02*
X137140149Y-117803112D01*
X137140149Y-117303112D02*
X137068721Y-117374541D01*
X137068721Y-117374541D02*
X137140149Y-117445969D01*
X137140149Y-117445969D02*
X137211578Y-117374541D01*
X137211578Y-117374541D02*
X137140149Y-117303112D01*
X137140149Y-117303112D02*
X137140149Y-117445969D01*
X137854435Y-117803112D02*
X137854435Y-118803112D01*
X137854435Y-117945969D02*
X137925864Y-117874541D01*
X137925864Y-117874541D02*
X138068721Y-117803112D01*
X138068721Y-117803112D02*
X138283007Y-117803112D01*
X138283007Y-117803112D02*
X138425864Y-117874541D01*
X138425864Y-117874541D02*
X138497293Y-118017398D01*
X138497293Y-118017398D02*
X138497293Y-118803112D01*
X139783007Y-118731684D02*
X139640150Y-118803112D01*
X139640150Y-118803112D02*
X139354436Y-118803112D01*
X139354436Y-118803112D02*
X139211578Y-118731684D01*
X139211578Y-118731684D02*
X139140150Y-118588826D01*
X139140150Y-118588826D02*
X139140150Y-118017398D01*
X139140150Y-118017398D02*
X139211578Y-117874541D01*
X139211578Y-117874541D02*
X139354436Y-117803112D01*
X139354436Y-117803112D02*
X139640150Y-117803112D01*
X139640150Y-117803112D02*
X139783007Y-117874541D01*
X139783007Y-117874541D02*
X139854436Y-118017398D01*
X139854436Y-118017398D02*
X139854436Y-118160255D01*
X139854436Y-118160255D02*
X139140150Y-118303112D01*
X140497292Y-118660255D02*
X140568721Y-118731684D01*
X140568721Y-118731684D02*
X140497292Y-118803112D01*
X140497292Y-118803112D02*
X140425864Y-118731684D01*
X140425864Y-118731684D02*
X140497292Y-118660255D01*
X140497292Y-118660255D02*
X140497292Y-118803112D01*
X140497292Y-117874541D02*
X140568721Y-117945969D01*
X140568721Y-117945969D02*
X140497292Y-118017398D01*
X140497292Y-118017398D02*
X140425864Y-117945969D01*
X140425864Y-117945969D02*
X140497292Y-117874541D01*
X140497292Y-117874541D02*
X140497292Y-118017398D01*
X142568721Y-117945969D02*
X142425864Y-117874541D01*
X142425864Y-117874541D02*
X142354435Y-117803112D01*
X142354435Y-117803112D02*
X142283007Y-117660255D01*
X142283007Y-117660255D02*
X142283007Y-117588826D01*
X142283007Y-117588826D02*
X142354435Y-117445969D01*
X142354435Y-117445969D02*
X142425864Y-117374541D01*
X142425864Y-117374541D02*
X142568721Y-117303112D01*
X142568721Y-117303112D02*
X142854435Y-117303112D01*
X142854435Y-117303112D02*
X142997293Y-117374541D01*
X142997293Y-117374541D02*
X143068721Y-117445969D01*
X143068721Y-117445969D02*
X143140150Y-117588826D01*
X143140150Y-117588826D02*
X143140150Y-117660255D01*
X143140150Y-117660255D02*
X143068721Y-117803112D01*
X143068721Y-117803112D02*
X142997293Y-117874541D01*
X142997293Y-117874541D02*
X142854435Y-117945969D01*
X142854435Y-117945969D02*
X142568721Y-117945969D01*
X142568721Y-117945969D02*
X142425864Y-118017398D01*
X142425864Y-118017398D02*
X142354435Y-118088826D01*
X142354435Y-118088826D02*
X142283007Y-118231684D01*
X142283007Y-118231684D02*
X142283007Y-118517398D01*
X142283007Y-118517398D02*
X142354435Y-118660255D01*
X142354435Y-118660255D02*
X142425864Y-118731684D01*
X142425864Y-118731684D02*
X142568721Y-118803112D01*
X142568721Y-118803112D02*
X142854435Y-118803112D01*
X142854435Y-118803112D02*
X142997293Y-118731684D01*
X142997293Y-118731684D02*
X143068721Y-118660255D01*
X143068721Y-118660255D02*
X143140150Y-118517398D01*
X143140150Y-118517398D02*
X143140150Y-118231684D01*
X143140150Y-118231684D02*
X143068721Y-118088826D01*
X143068721Y-118088826D02*
X142997293Y-118017398D01*
X142997293Y-118017398D02*
X142854435Y-117945969D01*
X143640149Y-117303112D02*
X144640149Y-117303112D01*
X144640149Y-117303112D02*
X143997292Y-118803112D01*
X145211577Y-118803112D02*
X145211577Y-117803112D01*
X145211577Y-117945969D02*
X145283006Y-117874541D01*
X145283006Y-117874541D02*
X145425863Y-117803112D01*
X145425863Y-117803112D02*
X145640149Y-117803112D01*
X145640149Y-117803112D02*
X145783006Y-117874541D01*
X145783006Y-117874541D02*
X145854435Y-118017398D01*
X145854435Y-118017398D02*
X145854435Y-118803112D01*
X145854435Y-118017398D02*
X145925863Y-117874541D01*
X145925863Y-117874541D02*
X146068720Y-117803112D01*
X146068720Y-117803112D02*
X146283006Y-117803112D01*
X146283006Y-117803112D02*
X146425863Y-117874541D01*
X146425863Y-117874541D02*
X146497292Y-118017398D01*
X146497292Y-118017398D02*
X146497292Y-118803112D01*
X147211577Y-118803112D02*
X147211577Y-117803112D01*
X147211577Y-117945969D02*
X147283006Y-117874541D01*
X147283006Y-117874541D02*
X147425863Y-117803112D01*
X147425863Y-117803112D02*
X147640149Y-117803112D01*
X147640149Y-117803112D02*
X147783006Y-117874541D01*
X147783006Y-117874541D02*
X147854435Y-118017398D01*
X147854435Y-118017398D02*
X147854435Y-118803112D01*
X147854435Y-118017398D02*
X147925863Y-117874541D01*
X147925863Y-117874541D02*
X148068720Y-117803112D01*
X148068720Y-117803112D02*
X148283006Y-117803112D01*
X148283006Y-117803112D02*
X148425863Y-117874541D01*
X148425863Y-117874541D02*
X148497292Y-118017398D01*
X148497292Y-118017398D02*
X148497292Y-118803112D01*
X150211577Y-118803112D02*
X150997292Y-117803112D01*
X150211577Y-117803112D02*
X150997292Y-118803112D01*
X152568720Y-117303112D02*
X153568720Y-117303112D01*
X153568720Y-117303112D02*
X152925863Y-118803112D01*
X153997291Y-117303112D02*
X154925863Y-117303112D01*
X154925863Y-117303112D02*
X154425863Y-117874541D01*
X154425863Y-117874541D02*
X154640148Y-117874541D01*
X154640148Y-117874541D02*
X154783006Y-117945969D01*
X154783006Y-117945969D02*
X154854434Y-118017398D01*
X154854434Y-118017398D02*
X154925863Y-118160255D01*
X154925863Y-118160255D02*
X154925863Y-118517398D01*
X154925863Y-118517398D02*
X154854434Y-118660255D01*
X154854434Y-118660255D02*
X154783006Y-118731684D01*
X154783006Y-118731684D02*
X154640148Y-118803112D01*
X154640148Y-118803112D02*
X154211577Y-118803112D01*
X154211577Y-118803112D02*
X154068720Y-118731684D01*
X154068720Y-118731684D02*
X153997291Y-118660255D01*
X155568719Y-118803112D02*
X155568719Y-117803112D01*
X155568719Y-117945969D02*
X155640148Y-117874541D01*
X155640148Y-117874541D02*
X155783005Y-117803112D01*
X155783005Y-117803112D02*
X155997291Y-117803112D01*
X155997291Y-117803112D02*
X156140148Y-117874541D01*
X156140148Y-117874541D02*
X156211577Y-118017398D01*
X156211577Y-118017398D02*
X156211577Y-118803112D01*
X156211577Y-118017398D02*
X156283005Y-117874541D01*
X156283005Y-117874541D02*
X156425862Y-117803112D01*
X156425862Y-117803112D02*
X156640148Y-117803112D01*
X156640148Y-117803112D02*
X156783005Y-117874541D01*
X156783005Y-117874541D02*
X156854434Y-118017398D01*
X156854434Y-118017398D02*
X156854434Y-118803112D01*
X157568719Y-118803112D02*
X157568719Y-117803112D01*
X157568719Y-117945969D02*
X157640148Y-117874541D01*
X157640148Y-117874541D02*
X157783005Y-117803112D01*
X157783005Y-117803112D02*
X157997291Y-117803112D01*
X157997291Y-117803112D02*
X158140148Y-117874541D01*
X158140148Y-117874541D02*
X158211577Y-118017398D01*
X158211577Y-118017398D02*
X158211577Y-118803112D01*
X158211577Y-118017398D02*
X158283005Y-117874541D01*
X158283005Y-117874541D02*
X158425862Y-117803112D01*
X158425862Y-117803112D02*
X158640148Y-117803112D01*
X158640148Y-117803112D02*
X158783005Y-117874541D01*
X158783005Y-117874541D02*
X158854434Y-118017398D01*
X158854434Y-118017398D02*
X158854434Y-118803112D01*
X132568720Y-121218028D02*
X132568720Y-119718028D01*
X132568720Y-120432314D02*
X133425863Y-120432314D01*
X133425863Y-121218028D02*
X133425863Y-119718028D01*
X134354435Y-121218028D02*
X134211578Y-121146600D01*
X134211578Y-121146600D02*
X134140149Y-121075171D01*
X134140149Y-121075171D02*
X134068721Y-120932314D01*
X134068721Y-120932314D02*
X134068721Y-120503742D01*
X134068721Y-120503742D02*
X134140149Y-120360885D01*
X134140149Y-120360885D02*
X134211578Y-120289457D01*
X134211578Y-120289457D02*
X134354435Y-120218028D01*
X134354435Y-120218028D02*
X134568721Y-120218028D01*
X134568721Y-120218028D02*
X134711578Y-120289457D01*
X134711578Y-120289457D02*
X134783007Y-120360885D01*
X134783007Y-120360885D02*
X134854435Y-120503742D01*
X134854435Y-120503742D02*
X134854435Y-120932314D01*
X134854435Y-120932314D02*
X134783007Y-121075171D01*
X134783007Y-121075171D02*
X134711578Y-121146600D01*
X134711578Y-121146600D02*
X134568721Y-121218028D01*
X134568721Y-121218028D02*
X134354435Y-121218028D01*
X135711578Y-121218028D02*
X135568721Y-121146600D01*
X135568721Y-121146600D02*
X135497292Y-121003742D01*
X135497292Y-121003742D02*
X135497292Y-119718028D01*
X136854435Y-121146600D02*
X136711578Y-121218028D01*
X136711578Y-121218028D02*
X136425864Y-121218028D01*
X136425864Y-121218028D02*
X136283006Y-121146600D01*
X136283006Y-121146600D02*
X136211578Y-121003742D01*
X136211578Y-121003742D02*
X136211578Y-120432314D01*
X136211578Y-120432314D02*
X136283006Y-120289457D01*
X136283006Y-120289457D02*
X136425864Y-120218028D01*
X136425864Y-120218028D02*
X136711578Y-120218028D01*
X136711578Y-120218028D02*
X136854435Y-120289457D01*
X136854435Y-120289457D02*
X136925864Y-120432314D01*
X136925864Y-120432314D02*
X136925864Y-120575171D01*
X136925864Y-120575171D02*
X136211578Y-120718028D01*
X137497292Y-121146600D02*
X137640149Y-121218028D01*
X137640149Y-121218028D02*
X137925863Y-121218028D01*
X137925863Y-121218028D02*
X138068720Y-121146600D01*
X138068720Y-121146600D02*
X138140149Y-121003742D01*
X138140149Y-121003742D02*
X138140149Y-120932314D01*
X138140149Y-120932314D02*
X138068720Y-120789457D01*
X138068720Y-120789457D02*
X137925863Y-120718028D01*
X137925863Y-120718028D02*
X137711578Y-120718028D01*
X137711578Y-120718028D02*
X137568720Y-120646600D01*
X137568720Y-120646600D02*
X137497292Y-120503742D01*
X137497292Y-120503742D02*
X137497292Y-120432314D01*
X137497292Y-120432314D02*
X137568720Y-120289457D01*
X137568720Y-120289457D02*
X137711578Y-120218028D01*
X137711578Y-120218028D02*
X137925863Y-120218028D01*
X137925863Y-120218028D02*
X138068720Y-120289457D01*
X138783006Y-121075171D02*
X138854435Y-121146600D01*
X138854435Y-121146600D02*
X138783006Y-121218028D01*
X138783006Y-121218028D02*
X138711578Y-121146600D01*
X138711578Y-121146600D02*
X138783006Y-121075171D01*
X138783006Y-121075171D02*
X138783006Y-121218028D01*
X138783006Y-120289457D02*
X138854435Y-120360885D01*
X138854435Y-120360885D02*
X138783006Y-120432314D01*
X138783006Y-120432314D02*
X138711578Y-120360885D01*
X138711578Y-120360885D02*
X138783006Y-120289457D01*
X138783006Y-120289457D02*
X138783006Y-120432314D01*
X140497292Y-119718028D02*
X141497292Y-119718028D01*
X141497292Y-119718028D02*
X140854435Y-121218028D01*
X141925863Y-119718028D02*
X142925863Y-119718028D01*
X142925863Y-119718028D02*
X142283006Y-121218028D01*
X143497291Y-121218028D02*
X143497291Y-120218028D01*
X143497291Y-120360885D02*
X143568720Y-120289457D01*
X143568720Y-120289457D02*
X143711577Y-120218028D01*
X143711577Y-120218028D02*
X143925863Y-120218028D01*
X143925863Y-120218028D02*
X144068720Y-120289457D01*
X144068720Y-120289457D02*
X144140149Y-120432314D01*
X144140149Y-120432314D02*
X144140149Y-121218028D01*
X144140149Y-120432314D02*
X144211577Y-120289457D01*
X144211577Y-120289457D02*
X144354434Y-120218028D01*
X144354434Y-120218028D02*
X144568720Y-120218028D01*
X144568720Y-120218028D02*
X144711577Y-120289457D01*
X144711577Y-120289457D02*
X144783006Y-120432314D01*
X144783006Y-120432314D02*
X144783006Y-121218028D01*
X145497291Y-121218028D02*
X145497291Y-120218028D01*
X145497291Y-120360885D02*
X145568720Y-120289457D01*
X145568720Y-120289457D02*
X145711577Y-120218028D01*
X145711577Y-120218028D02*
X145925863Y-120218028D01*
X145925863Y-120218028D02*
X146068720Y-120289457D01*
X146068720Y-120289457D02*
X146140149Y-120432314D01*
X146140149Y-120432314D02*
X146140149Y-121218028D01*
X146140149Y-120432314D02*
X146211577Y-120289457D01*
X146211577Y-120289457D02*
X146354434Y-120218028D01*
X146354434Y-120218028D02*
X146568720Y-120218028D01*
X146568720Y-120218028D02*
X146711577Y-120289457D01*
X146711577Y-120289457D02*
X146783006Y-120432314D01*
X146783006Y-120432314D02*
X146783006Y-121218028D01*
X148497291Y-121218028D02*
X149283006Y-120218028D01*
X148497291Y-120218028D02*
X149283006Y-121218028D01*
X151640149Y-119718028D02*
X151354434Y-119718028D01*
X151354434Y-119718028D02*
X151211577Y-119789457D01*
X151211577Y-119789457D02*
X151140149Y-119860885D01*
X151140149Y-119860885D02*
X150997291Y-120075171D01*
X150997291Y-120075171D02*
X150925863Y-120360885D01*
X150925863Y-120360885D02*
X150925863Y-120932314D01*
X150925863Y-120932314D02*
X150997291Y-121075171D01*
X150997291Y-121075171D02*
X151068720Y-121146600D01*
X151068720Y-121146600D02*
X151211577Y-121218028D01*
X151211577Y-121218028D02*
X151497291Y-121218028D01*
X151497291Y-121218028D02*
X151640149Y-121146600D01*
X151640149Y-121146600D02*
X151711577Y-121075171D01*
X151711577Y-121075171D02*
X151783006Y-120932314D01*
X151783006Y-120932314D02*
X151783006Y-120575171D01*
X151783006Y-120575171D02*
X151711577Y-120432314D01*
X151711577Y-120432314D02*
X151640149Y-120360885D01*
X151640149Y-120360885D02*
X151497291Y-120289457D01*
X151497291Y-120289457D02*
X151211577Y-120289457D01*
X151211577Y-120289457D02*
X151068720Y-120360885D01*
X151068720Y-120360885D02*
X150997291Y-120432314D01*
X150997291Y-120432314D02*
X150925863Y-120575171D01*
X152283005Y-119718028D02*
X153211577Y-119718028D01*
X153211577Y-119718028D02*
X152711577Y-120289457D01*
X152711577Y-120289457D02*
X152925862Y-120289457D01*
X152925862Y-120289457D02*
X153068720Y-120360885D01*
X153068720Y-120360885D02*
X153140148Y-120432314D01*
X153140148Y-120432314D02*
X153211577Y-120575171D01*
X153211577Y-120575171D02*
X153211577Y-120932314D01*
X153211577Y-120932314D02*
X153140148Y-121075171D01*
X153140148Y-121075171D02*
X153068720Y-121146600D01*
X153068720Y-121146600D02*
X152925862Y-121218028D01*
X152925862Y-121218028D02*
X152497291Y-121218028D01*
X152497291Y-121218028D02*
X152354434Y-121146600D01*
X152354434Y-121146600D02*
X152283005Y-121075171D01*
X153854433Y-121218028D02*
X153854433Y-120218028D01*
X153854433Y-120360885D02*
X153925862Y-120289457D01*
X153925862Y-120289457D02*
X154068719Y-120218028D01*
X154068719Y-120218028D02*
X154283005Y-120218028D01*
X154283005Y-120218028D02*
X154425862Y-120289457D01*
X154425862Y-120289457D02*
X154497291Y-120432314D01*
X154497291Y-120432314D02*
X154497291Y-121218028D01*
X154497291Y-120432314D02*
X154568719Y-120289457D01*
X154568719Y-120289457D02*
X154711576Y-120218028D01*
X154711576Y-120218028D02*
X154925862Y-120218028D01*
X154925862Y-120218028D02*
X155068719Y-120289457D01*
X155068719Y-120289457D02*
X155140148Y-120432314D01*
X155140148Y-120432314D02*
X155140148Y-121218028D01*
X155854433Y-121218028D02*
X155854433Y-120218028D01*
X155854433Y-120360885D02*
X155925862Y-120289457D01*
X155925862Y-120289457D02*
X156068719Y-120218028D01*
X156068719Y-120218028D02*
X156283005Y-120218028D01*
X156283005Y-120218028D02*
X156425862Y-120289457D01*
X156425862Y-120289457D02*
X156497291Y-120432314D01*
X156497291Y-120432314D02*
X156497291Y-121218028D01*
X156497291Y-120432314D02*
X156568719Y-120289457D01*
X156568719Y-120289457D02*
X156711576Y-120218028D01*
X156711576Y-120218028D02*
X156925862Y-120218028D01*
X156925862Y-120218028D02*
X157068719Y-120289457D01*
X157068719Y-120289457D02*
X157140148Y-120432314D01*
X157140148Y-120432314D02*
X157140148Y-121218028D01*
D11*
X159654819Y-109778333D02*
X160369104Y-109778333D01*
X160369104Y-109778333D02*
X160511961Y-109825952D01*
X160511961Y-109825952D02*
X160607200Y-109921190D01*
X160607200Y-109921190D02*
X160654819Y-110064047D01*
X160654819Y-110064047D02*
X160654819Y-110159285D01*
X159750057Y-109349761D02*
X159702438Y-109302142D01*
X159702438Y-109302142D02*
X159654819Y-109206904D01*
X159654819Y-109206904D02*
X159654819Y-108968809D01*
X159654819Y-108968809D02*
X159702438Y-108873571D01*
X159702438Y-108873571D02*
X159750057Y-108825952D01*
X159750057Y-108825952D02*
X159845295Y-108778333D01*
X159845295Y-108778333D02*
X159940533Y-108778333D01*
X159940533Y-108778333D02*
X160083390Y-108825952D01*
X160083390Y-108825952D02*
X160654819Y-109397380D01*
X160654819Y-109397380D02*
X160654819Y-108778333D01*
X128494819Y-110048333D02*
X129209104Y-110048333D01*
X129209104Y-110048333D02*
X129351961Y-110095952D01*
X129351961Y-110095952D02*
X129447200Y-110191190D01*
X129447200Y-110191190D02*
X129494819Y-110334047D01*
X129494819Y-110334047D02*
X129494819Y-110429285D01*
X129494819Y-109048333D02*
X129494819Y-109619761D01*
X129494819Y-109334047D02*
X128494819Y-109334047D01*
X128494819Y-109334047D02*
X128637676Y-109429285D01*
X128637676Y-109429285D02*
X128732914Y-109524523D01*
X128732914Y-109524523D02*
X128780533Y-109619761D01*
X153119819Y-52069904D02*
X153929342Y-52069904D01*
X153929342Y-52069904D02*
X154024580Y-52022285D01*
X154024580Y-52022285D02*
X154072200Y-51974666D01*
X154072200Y-51974666D02*
X154119819Y-51879428D01*
X154119819Y-51879428D02*
X154119819Y-51688952D01*
X154119819Y-51688952D02*
X154072200Y-51593714D01*
X154072200Y-51593714D02*
X154024580Y-51546095D01*
X154024580Y-51546095D02*
X153929342Y-51498476D01*
X153929342Y-51498476D02*
X153119819Y-51498476D01*
X154119819Y-50974666D02*
X154119819Y-50784190D01*
X154119819Y-50784190D02*
X154072200Y-50688952D01*
X154072200Y-50688952D02*
X154024580Y-50641333D01*
X154024580Y-50641333D02*
X153881723Y-50546095D01*
X153881723Y-50546095D02*
X153691247Y-50498476D01*
X153691247Y-50498476D02*
X153310295Y-50498476D01*
X153310295Y-50498476D02*
X153215057Y-50546095D01*
X153215057Y-50546095D02*
X153167438Y-50593714D01*
X153167438Y-50593714D02*
X153119819Y-50688952D01*
X153119819Y-50688952D02*
X153119819Y-50879428D01*
X153119819Y-50879428D02*
X153167438Y-50974666D01*
X153167438Y-50974666D02*
X153215057Y-51022285D01*
X153215057Y-51022285D02*
X153310295Y-51069904D01*
X153310295Y-51069904D02*
X153548390Y-51069904D01*
X153548390Y-51069904D02*
X153643628Y-51022285D01*
X153643628Y-51022285D02*
X153691247Y-50974666D01*
X153691247Y-50974666D02*
X153738866Y-50879428D01*
X153738866Y-50879428D02*
X153738866Y-50688952D01*
X153738866Y-50688952D02*
X153691247Y-50593714D01*
X153691247Y-50593714D02*
X153643628Y-50546095D01*
X153643628Y-50546095D02*
X153548390Y-50498476D01*
X162119819Y-48569904D02*
X162119819Y-47998476D01*
X163119819Y-48284190D02*
X162119819Y-48284190D01*
X162119819Y-47760380D02*
X163119819Y-47093714D01*
X162119819Y-47093714D02*
X163119819Y-47760380D01*
X163119819Y-46712761D02*
X162119819Y-46712761D01*
X162119819Y-46712761D02*
X162119819Y-46474666D01*
X162119819Y-46474666D02*
X162167438Y-46331809D01*
X162167438Y-46331809D02*
X162262676Y-46236571D01*
X162262676Y-46236571D02*
X162357914Y-46188952D01*
X162357914Y-46188952D02*
X162548390Y-46141333D01*
X162548390Y-46141333D02*
X162691247Y-46141333D01*
X162691247Y-46141333D02*
X162881723Y-46188952D01*
X162881723Y-46188952D02*
X162976961Y-46236571D01*
X162976961Y-46236571D02*
X163072200Y-46331809D01*
X163072200Y-46331809D02*
X163119819Y-46474666D01*
X163119819Y-46474666D02*
X163119819Y-46712761D01*
X160719819Y-56346094D02*
X160719819Y-55727047D01*
X160719819Y-55727047D02*
X161100771Y-56060380D01*
X161100771Y-56060380D02*
X161100771Y-55917523D01*
X161100771Y-55917523D02*
X161148390Y-55822285D01*
X161148390Y-55822285D02*
X161196009Y-55774666D01*
X161196009Y-55774666D02*
X161291247Y-55727047D01*
X161291247Y-55727047D02*
X161529342Y-55727047D01*
X161529342Y-55727047D02*
X161624580Y-55774666D01*
X161624580Y-55774666D02*
X161672200Y-55822285D01*
X161672200Y-55822285D02*
X161719819Y-55917523D01*
X161719819Y-55917523D02*
X161719819Y-56203237D01*
X161719819Y-56203237D02*
X161672200Y-56298475D01*
X161672200Y-56298475D02*
X161624580Y-56346094D01*
X160719819Y-55441332D02*
X161719819Y-55107999D01*
X161719819Y-55107999D02*
X160719819Y-54774666D01*
X160719819Y-54536570D02*
X160719819Y-53917523D01*
X160719819Y-53917523D02*
X161100771Y-54250856D01*
X161100771Y-54250856D02*
X161100771Y-54107999D01*
X161100771Y-54107999D02*
X161148390Y-54012761D01*
X161148390Y-54012761D02*
X161196009Y-53965142D01*
X161196009Y-53965142D02*
X161291247Y-53917523D01*
X161291247Y-53917523D02*
X161529342Y-53917523D01*
X161529342Y-53917523D02*
X161624580Y-53965142D01*
X161624580Y-53965142D02*
X161672200Y-54012761D01*
X161672200Y-54012761D02*
X161719819Y-54107999D01*
X161719819Y-54107999D02*
X161719819Y-54393713D01*
X161719819Y-54393713D02*
X161672200Y-54488951D01*
X161672200Y-54488951D02*
X161624580Y-54536570D01*
X164319819Y-55774666D02*
X163843628Y-56107999D01*
X164319819Y-56346094D02*
X163319819Y-56346094D01*
X163319819Y-56346094D02*
X163319819Y-55965142D01*
X163319819Y-55965142D02*
X163367438Y-55869904D01*
X163367438Y-55869904D02*
X163415057Y-55822285D01*
X163415057Y-55822285D02*
X163510295Y-55774666D01*
X163510295Y-55774666D02*
X163653152Y-55774666D01*
X163653152Y-55774666D02*
X163748390Y-55822285D01*
X163748390Y-55822285D02*
X163796009Y-55869904D01*
X163796009Y-55869904D02*
X163843628Y-55965142D01*
X163843628Y-55965142D02*
X163843628Y-56346094D01*
X163319819Y-55441332D02*
X164319819Y-54774666D01*
X163319819Y-54774666D02*
X164319819Y-55441332D01*
X164319819Y-54393713D02*
X163319819Y-54393713D01*
X163319819Y-54393713D02*
X163319819Y-54155618D01*
X163319819Y-54155618D02*
X163367438Y-54012761D01*
X163367438Y-54012761D02*
X163462676Y-53917523D01*
X163462676Y-53917523D02*
X163557914Y-53869904D01*
X163557914Y-53869904D02*
X163748390Y-53822285D01*
X163748390Y-53822285D02*
X163891247Y-53822285D01*
X163891247Y-53822285D02*
X164081723Y-53869904D01*
X164081723Y-53869904D02*
X164176961Y-53917523D01*
X164176961Y-53917523D02*
X164272200Y-54012761D01*
X164272200Y-54012761D02*
X164319819Y-54155618D01*
X164319819Y-54155618D02*
X164319819Y-54393713D01*
X156579285Y-52053180D02*
X157150713Y-52053180D01*
X156864999Y-52053180D02*
X156864999Y-53053180D01*
X156864999Y-53053180D02*
X156960237Y-52910323D01*
X156960237Y-52910323D02*
X157055475Y-52815085D01*
X157055475Y-52815085D02*
X157150713Y-52767466D01*
X165519819Y-48650856D02*
X164519819Y-48650856D01*
X164519819Y-48650856D02*
X164519819Y-48412761D01*
X164519819Y-48412761D02*
X164567438Y-48269904D01*
X164567438Y-48269904D02*
X164662676Y-48174666D01*
X164662676Y-48174666D02*
X164757914Y-48127047D01*
X164757914Y-48127047D02*
X164948390Y-48079428D01*
X164948390Y-48079428D02*
X165091247Y-48079428D01*
X165091247Y-48079428D02*
X165281723Y-48127047D01*
X165281723Y-48127047D02*
X165376961Y-48174666D01*
X165376961Y-48174666D02*
X165472200Y-48269904D01*
X165472200Y-48269904D02*
X165519819Y-48412761D01*
X165519819Y-48412761D02*
X165519819Y-48650856D01*
X164519819Y-47793713D02*
X164519819Y-47222285D01*
X165519819Y-47507999D02*
X164519819Y-47507999D01*
X165519819Y-46317523D02*
X165043628Y-46650856D01*
X165519819Y-46888951D02*
X164519819Y-46888951D01*
X164519819Y-46888951D02*
X164519819Y-46507999D01*
X164519819Y-46507999D02*
X164567438Y-46412761D01*
X164567438Y-46412761D02*
X164615057Y-46365142D01*
X164615057Y-46365142D02*
X164710295Y-46317523D01*
X164710295Y-46317523D02*
X164853152Y-46317523D01*
X164853152Y-46317523D02*
X164948390Y-46365142D01*
X164948390Y-46365142D02*
X164996009Y-46412761D01*
X164996009Y-46412761D02*
X165043628Y-46507999D01*
X165043628Y-46507999D02*
X165043628Y-46888951D01*
X159567438Y-48069904D02*
X159519819Y-48165142D01*
X159519819Y-48165142D02*
X159519819Y-48307999D01*
X159519819Y-48307999D02*
X159567438Y-48450856D01*
X159567438Y-48450856D02*
X159662676Y-48546094D01*
X159662676Y-48546094D02*
X159757914Y-48593713D01*
X159757914Y-48593713D02*
X159948390Y-48641332D01*
X159948390Y-48641332D02*
X160091247Y-48641332D01*
X160091247Y-48641332D02*
X160281723Y-48593713D01*
X160281723Y-48593713D02*
X160376961Y-48546094D01*
X160376961Y-48546094D02*
X160472200Y-48450856D01*
X160472200Y-48450856D02*
X160519819Y-48307999D01*
X160519819Y-48307999D02*
X160519819Y-48212761D01*
X160519819Y-48212761D02*
X160472200Y-48069904D01*
X160472200Y-48069904D02*
X160424580Y-48022285D01*
X160424580Y-48022285D02*
X160091247Y-48022285D01*
X160091247Y-48022285D02*
X160091247Y-48212761D01*
X160519819Y-47593713D02*
X159519819Y-47593713D01*
X159519819Y-47593713D02*
X160519819Y-47022285D01*
X160519819Y-47022285D02*
X159519819Y-47022285D01*
X160519819Y-46546094D02*
X159519819Y-46546094D01*
X159519819Y-46546094D02*
X159519819Y-46307999D01*
X159519819Y-46307999D02*
X159567438Y-46165142D01*
X159567438Y-46165142D02*
X159662676Y-46069904D01*
X159662676Y-46069904D02*
X159757914Y-46022285D01*
X159757914Y-46022285D02*
X159948390Y-45974666D01*
X159948390Y-45974666D02*
X160091247Y-45974666D01*
X160091247Y-45974666D02*
X160281723Y-46022285D01*
X160281723Y-46022285D02*
X160376961Y-46069904D01*
X160376961Y-46069904D02*
X160472200Y-46165142D01*
X160472200Y-46165142D02*
X160519819Y-46307999D01*
X160519819Y-46307999D02*
X160519819Y-46546094D01*
X159319819Y-55655619D02*
X158843628Y-55988952D01*
X159319819Y-56227047D02*
X158319819Y-56227047D01*
X158319819Y-56227047D02*
X158319819Y-55846095D01*
X158319819Y-55846095D02*
X158367438Y-55750857D01*
X158367438Y-55750857D02*
X158415057Y-55703238D01*
X158415057Y-55703238D02*
X158510295Y-55655619D01*
X158510295Y-55655619D02*
X158653152Y-55655619D01*
X158653152Y-55655619D02*
X158748390Y-55703238D01*
X158748390Y-55703238D02*
X158796009Y-55750857D01*
X158796009Y-55750857D02*
X158843628Y-55846095D01*
X158843628Y-55846095D02*
X158843628Y-56227047D01*
X158319819Y-55369904D02*
X158319819Y-54798476D01*
X159319819Y-55084190D02*
X158319819Y-55084190D01*
X159272200Y-54512761D02*
X159319819Y-54369904D01*
X159319819Y-54369904D02*
X159319819Y-54131809D01*
X159319819Y-54131809D02*
X159272200Y-54036571D01*
X159272200Y-54036571D02*
X159224580Y-53988952D01*
X159224580Y-53988952D02*
X159129342Y-53941333D01*
X159129342Y-53941333D02*
X159034104Y-53941333D01*
X159034104Y-53941333D02*
X158938866Y-53988952D01*
X158938866Y-53988952D02*
X158891247Y-54036571D01*
X158891247Y-54036571D02*
X158843628Y-54131809D01*
X158843628Y-54131809D02*
X158796009Y-54322285D01*
X158796009Y-54322285D02*
X158748390Y-54417523D01*
X158748390Y-54417523D02*
X158700771Y-54465142D01*
X158700771Y-54465142D02*
X158605533Y-54512761D01*
X158605533Y-54512761D02*
X158510295Y-54512761D01*
X158510295Y-54512761D02*
X158415057Y-54465142D01*
X158415057Y-54465142D02*
X158367438Y-54417523D01*
X158367438Y-54417523D02*
X158319819Y-54322285D01*
X158319819Y-54322285D02*
X158319819Y-54084190D01*
X158319819Y-54084190D02*
X158367438Y-53941333D01*
X140970095Y-78774819D02*
X140970095Y-79584342D01*
X140970095Y-79584342D02*
X141017714Y-79679580D01*
X141017714Y-79679580D02*
X141065333Y-79727200D01*
X141065333Y-79727200D02*
X141160571Y-79774819D01*
X141160571Y-79774819D02*
X141351047Y-79774819D01*
X141351047Y-79774819D02*
X141446285Y-79727200D01*
X141446285Y-79727200D02*
X141493904Y-79679580D01*
X141493904Y-79679580D02*
X141541523Y-79584342D01*
X141541523Y-79584342D02*
X141541523Y-78774819D01*
X142446285Y-78774819D02*
X142255809Y-78774819D01*
X142255809Y-78774819D02*
X142160571Y-78822438D01*
X142160571Y-78822438D02*
X142112952Y-78870057D01*
X142112952Y-78870057D02*
X142017714Y-79012914D01*
X142017714Y-79012914D02*
X141970095Y-79203390D01*
X141970095Y-79203390D02*
X141970095Y-79584342D01*
X141970095Y-79584342D02*
X142017714Y-79679580D01*
X142017714Y-79679580D02*
X142065333Y-79727200D01*
X142065333Y-79727200D02*
X142160571Y-79774819D01*
X142160571Y-79774819D02*
X142351047Y-79774819D01*
X142351047Y-79774819D02*
X142446285Y-79727200D01*
X142446285Y-79727200D02*
X142493904Y-79679580D01*
X142493904Y-79679580D02*
X142541523Y-79584342D01*
X142541523Y-79584342D02*
X142541523Y-79346247D01*
X142541523Y-79346247D02*
X142493904Y-79251009D01*
X142493904Y-79251009D02*
X142446285Y-79203390D01*
X142446285Y-79203390D02*
X142351047Y-79155771D01*
X142351047Y-79155771D02*
X142160571Y-79155771D01*
X142160571Y-79155771D02*
X142065333Y-79203390D01*
X142065333Y-79203390D02*
X142017714Y-79251009D01*
X142017714Y-79251009D02*
X141970095Y-79346247D01*
X159512095Y-76234819D02*
X159512095Y-77044342D01*
X159512095Y-77044342D02*
X159559714Y-77139580D01*
X159559714Y-77139580D02*
X159607333Y-77187200D01*
X159607333Y-77187200D02*
X159702571Y-77234819D01*
X159702571Y-77234819D02*
X159893047Y-77234819D01*
X159893047Y-77234819D02*
X159988285Y-77187200D01*
X159988285Y-77187200D02*
X160035904Y-77139580D01*
X160035904Y-77139580D02*
X160083523Y-77044342D01*
X160083523Y-77044342D02*
X160083523Y-76234819D01*
X161035904Y-76234819D02*
X160559714Y-76234819D01*
X160559714Y-76234819D02*
X160512095Y-76711009D01*
X160512095Y-76711009D02*
X160559714Y-76663390D01*
X160559714Y-76663390D02*
X160654952Y-76615771D01*
X160654952Y-76615771D02*
X160893047Y-76615771D01*
X160893047Y-76615771D02*
X160988285Y-76663390D01*
X160988285Y-76663390D02*
X161035904Y-76711009D01*
X161035904Y-76711009D02*
X161083523Y-76806247D01*
X161083523Y-76806247D02*
X161083523Y-77044342D01*
X161083523Y-77044342D02*
X161035904Y-77139580D01*
X161035904Y-77139580D02*
X160988285Y-77187200D01*
X160988285Y-77187200D02*
X160893047Y-77234819D01*
X160893047Y-77234819D02*
X160654952Y-77234819D01*
X160654952Y-77234819D02*
X160559714Y-77187200D01*
X160559714Y-77187200D02*
X160512095Y-77139580D01*
X161733095Y-58294819D02*
X161733095Y-59104342D01*
X161733095Y-59104342D02*
X161780714Y-59199580D01*
X161780714Y-59199580D02*
X161828333Y-59247200D01*
X161828333Y-59247200D02*
X161923571Y-59294819D01*
X161923571Y-59294819D02*
X162114047Y-59294819D01*
X162114047Y-59294819D02*
X162209285Y-59247200D01*
X162209285Y-59247200D02*
X162256904Y-59199580D01*
X162256904Y-59199580D02*
X162304523Y-59104342D01*
X162304523Y-59104342D02*
X162304523Y-58294819D01*
X163209285Y-58628152D02*
X163209285Y-59294819D01*
X162971190Y-58247200D02*
X162733095Y-58961485D01*
X162733095Y-58961485D02*
X163352142Y-58961485D01*
X128544819Y-67766904D02*
X129354342Y-67766904D01*
X129354342Y-67766904D02*
X129449580Y-67719285D01*
X129449580Y-67719285D02*
X129497200Y-67671666D01*
X129497200Y-67671666D02*
X129544819Y-67576428D01*
X129544819Y-67576428D02*
X129544819Y-67385952D01*
X129544819Y-67385952D02*
X129497200Y-67290714D01*
X129497200Y-67290714D02*
X129449580Y-67243095D01*
X129449580Y-67243095D02*
X129354342Y-67195476D01*
X129354342Y-67195476D02*
X128544819Y-67195476D01*
X128544819Y-66814523D02*
X128544819Y-66195476D01*
X128544819Y-66195476D02*
X128925771Y-66528809D01*
X128925771Y-66528809D02*
X128925771Y-66385952D01*
X128925771Y-66385952D02*
X128973390Y-66290714D01*
X128973390Y-66290714D02*
X129021009Y-66243095D01*
X129021009Y-66243095D02*
X129116247Y-66195476D01*
X129116247Y-66195476D02*
X129354342Y-66195476D01*
X129354342Y-66195476D02*
X129449580Y-66243095D01*
X129449580Y-66243095D02*
X129497200Y-66290714D01*
X129497200Y-66290714D02*
X129544819Y-66385952D01*
X129544819Y-66385952D02*
X129544819Y-66671666D01*
X129544819Y-66671666D02*
X129497200Y-66766904D01*
X129497200Y-66766904D02*
X129449580Y-66814523D01*
X134934819Y-79501904D02*
X135744342Y-79501904D01*
X135744342Y-79501904D02*
X135839580Y-79454285D01*
X135839580Y-79454285D02*
X135887200Y-79406666D01*
X135887200Y-79406666D02*
X135934819Y-79311428D01*
X135934819Y-79311428D02*
X135934819Y-79120952D01*
X135934819Y-79120952D02*
X135887200Y-79025714D01*
X135887200Y-79025714D02*
X135839580Y-78978095D01*
X135839580Y-78978095D02*
X135744342Y-78930476D01*
X135744342Y-78930476D02*
X134934819Y-78930476D01*
X135030057Y-78501904D02*
X134982438Y-78454285D01*
X134982438Y-78454285D02*
X134934819Y-78359047D01*
X134934819Y-78359047D02*
X134934819Y-78120952D01*
X134934819Y-78120952D02*
X134982438Y-78025714D01*
X134982438Y-78025714D02*
X135030057Y-77978095D01*
X135030057Y-77978095D02*
X135125295Y-77930476D01*
X135125295Y-77930476D02*
X135220533Y-77930476D01*
X135220533Y-77930476D02*
X135363390Y-77978095D01*
X135363390Y-77978095D02*
X135934819Y-78549523D01*
X135934819Y-78549523D02*
X135934819Y-77930476D01*
X133934819Y-89486404D02*
X134744342Y-89486404D01*
X134744342Y-89486404D02*
X134839580Y-89438785D01*
X134839580Y-89438785D02*
X134887200Y-89391166D01*
X134887200Y-89391166D02*
X134934819Y-89295928D01*
X134934819Y-89295928D02*
X134934819Y-89105452D01*
X134934819Y-89105452D02*
X134887200Y-89010214D01*
X134887200Y-89010214D02*
X134839580Y-88962595D01*
X134839580Y-88962595D02*
X134744342Y-88914976D01*
X134744342Y-88914976D02*
X133934819Y-88914976D01*
X134934819Y-87914976D02*
X134934819Y-88486404D01*
X134934819Y-88200690D02*
X133934819Y-88200690D01*
X133934819Y-88200690D02*
X134077676Y-88295928D01*
X134077676Y-88295928D02*
X134172914Y-88391166D01*
X134172914Y-88391166D02*
X134220533Y-88486404D01*
X134485142Y-85036819D02*
X134151809Y-84560628D01*
X133913714Y-85036819D02*
X133913714Y-84036819D01*
X133913714Y-84036819D02*
X134294666Y-84036819D01*
X134294666Y-84036819D02*
X134389904Y-84084438D01*
X134389904Y-84084438D02*
X134437523Y-84132057D01*
X134437523Y-84132057D02*
X134485142Y-84227295D01*
X134485142Y-84227295D02*
X134485142Y-84370152D01*
X134485142Y-84370152D02*
X134437523Y-84465390D01*
X134437523Y-84465390D02*
X134389904Y-84513009D01*
X134389904Y-84513009D02*
X134294666Y-84560628D01*
X134294666Y-84560628D02*
X133913714Y-84560628D01*
X134866095Y-84132057D02*
X134913714Y-84084438D01*
X134913714Y-84084438D02*
X135008952Y-84036819D01*
X135008952Y-84036819D02*
X135247047Y-84036819D01*
X135247047Y-84036819D02*
X135342285Y-84084438D01*
X135342285Y-84084438D02*
X135389904Y-84132057D01*
X135389904Y-84132057D02*
X135437523Y-84227295D01*
X135437523Y-84227295D02*
X135437523Y-84322533D01*
X135437523Y-84322533D02*
X135389904Y-84465390D01*
X135389904Y-84465390D02*
X134818476Y-85036819D01*
X134818476Y-85036819D02*
X135437523Y-85036819D01*
X135770857Y-84036819D02*
X136437523Y-84036819D01*
X136437523Y-84036819D02*
X136008952Y-85036819D01*
X125817333Y-88592819D02*
X125484000Y-88116628D01*
X125245905Y-88592819D02*
X125245905Y-87592819D01*
X125245905Y-87592819D02*
X125626857Y-87592819D01*
X125626857Y-87592819D02*
X125722095Y-87640438D01*
X125722095Y-87640438D02*
X125769714Y-87688057D01*
X125769714Y-87688057D02*
X125817333Y-87783295D01*
X125817333Y-87783295D02*
X125817333Y-87926152D01*
X125817333Y-87926152D02*
X125769714Y-88021390D01*
X125769714Y-88021390D02*
X125722095Y-88069009D01*
X125722095Y-88069009D02*
X125626857Y-88116628D01*
X125626857Y-88116628D02*
X125245905Y-88116628D01*
X126150667Y-87592819D02*
X126817333Y-87592819D01*
X126817333Y-87592819D02*
X126388762Y-88592819D01*
X124457619Y-93384666D02*
X123981428Y-93717999D01*
X124457619Y-93956094D02*
X123457619Y-93956094D01*
X123457619Y-93956094D02*
X123457619Y-93575142D01*
X123457619Y-93575142D02*
X123505238Y-93479904D01*
X123505238Y-93479904D02*
X123552857Y-93432285D01*
X123552857Y-93432285D02*
X123648095Y-93384666D01*
X123648095Y-93384666D02*
X123790952Y-93384666D01*
X123790952Y-93384666D02*
X123886190Y-93432285D01*
X123886190Y-93432285D02*
X123933809Y-93479904D01*
X123933809Y-93479904D02*
X123981428Y-93575142D01*
X123981428Y-93575142D02*
X123981428Y-93956094D01*
X123457619Y-92527523D02*
X123457619Y-92717999D01*
X123457619Y-92717999D02*
X123505238Y-92813237D01*
X123505238Y-92813237D02*
X123552857Y-92860856D01*
X123552857Y-92860856D02*
X123695714Y-92956094D01*
X123695714Y-92956094D02*
X123886190Y-93003713D01*
X123886190Y-93003713D02*
X124267142Y-93003713D01*
X124267142Y-93003713D02*
X124362380Y-92956094D01*
X124362380Y-92956094D02*
X124410000Y-92908475D01*
X124410000Y-92908475D02*
X124457619Y-92813237D01*
X124457619Y-92813237D02*
X124457619Y-92622761D01*
X124457619Y-92622761D02*
X124410000Y-92527523D01*
X124410000Y-92527523D02*
X124362380Y-92479904D01*
X124362380Y-92479904D02*
X124267142Y-92432285D01*
X124267142Y-92432285D02*
X124029047Y-92432285D01*
X124029047Y-92432285D02*
X123933809Y-92479904D01*
X123933809Y-92479904D02*
X123886190Y-92527523D01*
X123886190Y-92527523D02*
X123838571Y-92622761D01*
X123838571Y-92622761D02*
X123838571Y-92813237D01*
X123838571Y-92813237D02*
X123886190Y-92908475D01*
X123886190Y-92908475D02*
X123933809Y-92956094D01*
X123933809Y-92956094D02*
X124029047Y-93003713D01*
X125563333Y-72844819D02*
X125230000Y-72368628D01*
X124991905Y-72844819D02*
X124991905Y-71844819D01*
X124991905Y-71844819D02*
X125372857Y-71844819D01*
X125372857Y-71844819D02*
X125468095Y-71892438D01*
X125468095Y-71892438D02*
X125515714Y-71940057D01*
X125515714Y-71940057D02*
X125563333Y-72035295D01*
X125563333Y-72035295D02*
X125563333Y-72178152D01*
X125563333Y-72178152D02*
X125515714Y-72273390D01*
X125515714Y-72273390D02*
X125468095Y-72321009D01*
X125468095Y-72321009D02*
X125372857Y-72368628D01*
X125372857Y-72368628D02*
X124991905Y-72368628D01*
X126468095Y-71844819D02*
X125991905Y-71844819D01*
X125991905Y-71844819D02*
X125944286Y-72321009D01*
X125944286Y-72321009D02*
X125991905Y-72273390D01*
X125991905Y-72273390D02*
X126087143Y-72225771D01*
X126087143Y-72225771D02*
X126325238Y-72225771D01*
X126325238Y-72225771D02*
X126420476Y-72273390D01*
X126420476Y-72273390D02*
X126468095Y-72321009D01*
X126468095Y-72321009D02*
X126515714Y-72416247D01*
X126515714Y-72416247D02*
X126515714Y-72654342D01*
X126515714Y-72654342D02*
X126468095Y-72749580D01*
X126468095Y-72749580D02*
X126420476Y-72797200D01*
X126420476Y-72797200D02*
X126325238Y-72844819D01*
X126325238Y-72844819D02*
X126087143Y-72844819D01*
X126087143Y-72844819D02*
X125991905Y-72797200D01*
X125991905Y-72797200D02*
X125944286Y-72749580D01*
X125770819Y-55388166D02*
X125294628Y-55721499D01*
X125770819Y-55959594D02*
X124770819Y-55959594D01*
X124770819Y-55959594D02*
X124770819Y-55578642D01*
X124770819Y-55578642D02*
X124818438Y-55483404D01*
X124818438Y-55483404D02*
X124866057Y-55435785D01*
X124866057Y-55435785D02*
X124961295Y-55388166D01*
X124961295Y-55388166D02*
X125104152Y-55388166D01*
X125104152Y-55388166D02*
X125199390Y-55435785D01*
X125199390Y-55435785D02*
X125247009Y-55483404D01*
X125247009Y-55483404D02*
X125294628Y-55578642D01*
X125294628Y-55578642D02*
X125294628Y-55959594D01*
X125104152Y-54531023D02*
X125770819Y-54531023D01*
X124723200Y-54769118D02*
X125437485Y-55007213D01*
X125437485Y-55007213D02*
X125437485Y-54388166D01*
X126184819Y-75254166D02*
X125708628Y-75587499D01*
X126184819Y-75825594D02*
X125184819Y-75825594D01*
X125184819Y-75825594D02*
X125184819Y-75444642D01*
X125184819Y-75444642D02*
X125232438Y-75349404D01*
X125232438Y-75349404D02*
X125280057Y-75301785D01*
X125280057Y-75301785D02*
X125375295Y-75254166D01*
X125375295Y-75254166D02*
X125518152Y-75254166D01*
X125518152Y-75254166D02*
X125613390Y-75301785D01*
X125613390Y-75301785D02*
X125661009Y-75349404D01*
X125661009Y-75349404D02*
X125708628Y-75444642D01*
X125708628Y-75444642D02*
X125708628Y-75825594D01*
X125184819Y-74920832D02*
X125184819Y-74301785D01*
X125184819Y-74301785D02*
X125565771Y-74635118D01*
X125565771Y-74635118D02*
X125565771Y-74492261D01*
X125565771Y-74492261D02*
X125613390Y-74397023D01*
X125613390Y-74397023D02*
X125661009Y-74349404D01*
X125661009Y-74349404D02*
X125756247Y-74301785D01*
X125756247Y-74301785D02*
X125994342Y-74301785D01*
X125994342Y-74301785D02*
X126089580Y-74349404D01*
X126089580Y-74349404D02*
X126137200Y-74397023D01*
X126137200Y-74397023D02*
X126184819Y-74492261D01*
X126184819Y-74492261D02*
X126184819Y-74777975D01*
X126184819Y-74777975D02*
X126137200Y-74873213D01*
X126137200Y-74873213D02*
X126089580Y-74920832D01*
X123888833Y-61574819D02*
X123555500Y-61098628D01*
X123317405Y-61574819D02*
X123317405Y-60574819D01*
X123317405Y-60574819D02*
X123698357Y-60574819D01*
X123698357Y-60574819D02*
X123793595Y-60622438D01*
X123793595Y-60622438D02*
X123841214Y-60670057D01*
X123841214Y-60670057D02*
X123888833Y-60765295D01*
X123888833Y-60765295D02*
X123888833Y-60908152D01*
X123888833Y-60908152D02*
X123841214Y-61003390D01*
X123841214Y-61003390D02*
X123793595Y-61051009D01*
X123793595Y-61051009D02*
X123698357Y-61098628D01*
X123698357Y-61098628D02*
X123317405Y-61098628D01*
X124269786Y-60670057D02*
X124317405Y-60622438D01*
X124317405Y-60622438D02*
X124412643Y-60574819D01*
X124412643Y-60574819D02*
X124650738Y-60574819D01*
X124650738Y-60574819D02*
X124745976Y-60622438D01*
X124745976Y-60622438D02*
X124793595Y-60670057D01*
X124793595Y-60670057D02*
X124841214Y-60765295D01*
X124841214Y-60765295D02*
X124841214Y-60860533D01*
X124841214Y-60860533D02*
X124793595Y-61003390D01*
X124793595Y-61003390D02*
X124222167Y-61574819D01*
X124222167Y-61574819D02*
X124841214Y-61574819D01*
X122411833Y-58281819D02*
X122078500Y-57805628D01*
X121840405Y-58281819D02*
X121840405Y-57281819D01*
X121840405Y-57281819D02*
X122221357Y-57281819D01*
X122221357Y-57281819D02*
X122316595Y-57329438D01*
X122316595Y-57329438D02*
X122364214Y-57377057D01*
X122364214Y-57377057D02*
X122411833Y-57472295D01*
X122411833Y-57472295D02*
X122411833Y-57615152D01*
X122411833Y-57615152D02*
X122364214Y-57710390D01*
X122364214Y-57710390D02*
X122316595Y-57758009D01*
X122316595Y-57758009D02*
X122221357Y-57805628D01*
X122221357Y-57805628D02*
X121840405Y-57805628D01*
X123364214Y-58281819D02*
X122792786Y-58281819D01*
X123078500Y-58281819D02*
X123078500Y-57281819D01*
X123078500Y-57281819D02*
X122983262Y-57424676D01*
X122983262Y-57424676D02*
X122888024Y-57519914D01*
X122888024Y-57519914D02*
X122792786Y-57567533D01*
X120344819Y-89483333D02*
X121059104Y-89483333D01*
X121059104Y-89483333D02*
X121201961Y-89530952D01*
X121201961Y-89530952D02*
X121297200Y-89626190D01*
X121297200Y-89626190D02*
X121344819Y-89769047D01*
X121344819Y-89769047D02*
X121344819Y-89864285D01*
X120344819Y-88578571D02*
X120344819Y-88769047D01*
X120344819Y-88769047D02*
X120392438Y-88864285D01*
X120392438Y-88864285D02*
X120440057Y-88911904D01*
X120440057Y-88911904D02*
X120582914Y-89007142D01*
X120582914Y-89007142D02*
X120773390Y-89054761D01*
X120773390Y-89054761D02*
X121154342Y-89054761D01*
X121154342Y-89054761D02*
X121249580Y-89007142D01*
X121249580Y-89007142D02*
X121297200Y-88959523D01*
X121297200Y-88959523D02*
X121344819Y-88864285D01*
X121344819Y-88864285D02*
X121344819Y-88673809D01*
X121344819Y-88673809D02*
X121297200Y-88578571D01*
X121297200Y-88578571D02*
X121249580Y-88530952D01*
X121249580Y-88530952D02*
X121154342Y-88483333D01*
X121154342Y-88483333D02*
X120916247Y-88483333D01*
X120916247Y-88483333D02*
X120821009Y-88530952D01*
X120821009Y-88530952D02*
X120773390Y-88578571D01*
X120773390Y-88578571D02*
X120725771Y-88673809D01*
X120725771Y-88673809D02*
X120725771Y-88864285D01*
X120725771Y-88864285D02*
X120773390Y-88959523D01*
X120773390Y-88959523D02*
X120821009Y-89007142D01*
X120821009Y-89007142D02*
X120916247Y-89054761D01*
X120344819Y-73483333D02*
X121059104Y-73483333D01*
X121059104Y-73483333D02*
X121201961Y-73530952D01*
X121201961Y-73530952D02*
X121297200Y-73626190D01*
X121297200Y-73626190D02*
X121344819Y-73769047D01*
X121344819Y-73769047D02*
X121344819Y-73864285D01*
X120344819Y-72530952D02*
X120344819Y-73007142D01*
X120344819Y-73007142D02*
X120821009Y-73054761D01*
X120821009Y-73054761D02*
X120773390Y-73007142D01*
X120773390Y-73007142D02*
X120725771Y-72911904D01*
X120725771Y-72911904D02*
X120725771Y-72673809D01*
X120725771Y-72673809D02*
X120773390Y-72578571D01*
X120773390Y-72578571D02*
X120821009Y-72530952D01*
X120821009Y-72530952D02*
X120916247Y-72483333D01*
X120916247Y-72483333D02*
X121154342Y-72483333D01*
X121154342Y-72483333D02*
X121249580Y-72530952D01*
X121249580Y-72530952D02*
X121297200Y-72578571D01*
X121297200Y-72578571D02*
X121344819Y-72673809D01*
X121344819Y-72673809D02*
X121344819Y-72911904D01*
X121344819Y-72911904D02*
X121297200Y-73007142D01*
X121297200Y-73007142D02*
X121249580Y-73054761D01*
X120358819Y-54943333D02*
X121073104Y-54943333D01*
X121073104Y-54943333D02*
X121215961Y-54990952D01*
X121215961Y-54990952D02*
X121311200Y-55086190D01*
X121311200Y-55086190D02*
X121358819Y-55229047D01*
X121358819Y-55229047D02*
X121358819Y-55324285D01*
X120692152Y-54038571D02*
X121358819Y-54038571D01*
X120311200Y-54276666D02*
X121025485Y-54514761D01*
X121025485Y-54514761D02*
X121025485Y-53895714D01*
X173148666Y-51524819D02*
X173148666Y-52239104D01*
X173148666Y-52239104D02*
X173101047Y-52381961D01*
X173101047Y-52381961D02*
X173005809Y-52477200D01*
X173005809Y-52477200D02*
X172862952Y-52524819D01*
X172862952Y-52524819D02*
X172767714Y-52524819D01*
X173529619Y-51524819D02*
X174148666Y-51524819D01*
X174148666Y-51524819D02*
X173815333Y-51905771D01*
X173815333Y-51905771D02*
X173958190Y-51905771D01*
X173958190Y-51905771D02*
X174053428Y-51953390D01*
X174053428Y-51953390D02*
X174101047Y-52001009D01*
X174101047Y-52001009D02*
X174148666Y-52096247D01*
X174148666Y-52096247D02*
X174148666Y-52334342D01*
X174148666Y-52334342D02*
X174101047Y-52429580D01*
X174101047Y-52429580D02*
X174053428Y-52477200D01*
X174053428Y-52477200D02*
X173958190Y-52524819D01*
X173958190Y-52524819D02*
X173672476Y-52524819D01*
X173672476Y-52524819D02*
X173577238Y-52477200D01*
X173577238Y-52477200D02*
X173529619Y-52429580D01*
X147439142Y-92053580D02*
X147391523Y-92101200D01*
X147391523Y-92101200D02*
X147248666Y-92148819D01*
X147248666Y-92148819D02*
X147153428Y-92148819D01*
X147153428Y-92148819D02*
X147010571Y-92101200D01*
X147010571Y-92101200D02*
X146915333Y-92005961D01*
X146915333Y-92005961D02*
X146867714Y-91910723D01*
X146867714Y-91910723D02*
X146820095Y-91720247D01*
X146820095Y-91720247D02*
X146820095Y-91577390D01*
X146820095Y-91577390D02*
X146867714Y-91386914D01*
X146867714Y-91386914D02*
X146915333Y-91291676D01*
X146915333Y-91291676D02*
X147010571Y-91196438D01*
X147010571Y-91196438D02*
X147153428Y-91148819D01*
X147153428Y-91148819D02*
X147248666Y-91148819D01*
X147248666Y-91148819D02*
X147391523Y-91196438D01*
X147391523Y-91196438D02*
X147439142Y-91244057D01*
X148391523Y-92148819D02*
X147820095Y-92148819D01*
X148105809Y-92148819D02*
X148105809Y-91148819D01*
X148105809Y-91148819D02*
X148010571Y-91291676D01*
X148010571Y-91291676D02*
X147915333Y-91386914D01*
X147915333Y-91386914D02*
X147820095Y-91434533D01*
X149296285Y-91148819D02*
X148820095Y-91148819D01*
X148820095Y-91148819D02*
X148772476Y-91625009D01*
X148772476Y-91625009D02*
X148820095Y-91577390D01*
X148820095Y-91577390D02*
X148915333Y-91529771D01*
X148915333Y-91529771D02*
X149153428Y-91529771D01*
X149153428Y-91529771D02*
X149248666Y-91577390D01*
X149248666Y-91577390D02*
X149296285Y-91625009D01*
X149296285Y-91625009D02*
X149343904Y-91720247D01*
X149343904Y-91720247D02*
X149343904Y-91958342D01*
X149343904Y-91958342D02*
X149296285Y-92053580D01*
X149296285Y-92053580D02*
X149248666Y-92101200D01*
X149248666Y-92101200D02*
X149153428Y-92148819D01*
X149153428Y-92148819D02*
X148915333Y-92148819D01*
X148915333Y-92148819D02*
X148820095Y-92101200D01*
X148820095Y-92101200D02*
X148772476Y-92053580D01*
X147693142Y-89767580D02*
X147645523Y-89815200D01*
X147645523Y-89815200D02*
X147502666Y-89862819D01*
X147502666Y-89862819D02*
X147407428Y-89862819D01*
X147407428Y-89862819D02*
X147264571Y-89815200D01*
X147264571Y-89815200D02*
X147169333Y-89719961D01*
X147169333Y-89719961D02*
X147121714Y-89624723D01*
X147121714Y-89624723D02*
X147074095Y-89434247D01*
X147074095Y-89434247D02*
X147074095Y-89291390D01*
X147074095Y-89291390D02*
X147121714Y-89100914D01*
X147121714Y-89100914D02*
X147169333Y-89005676D01*
X147169333Y-89005676D02*
X147264571Y-88910438D01*
X147264571Y-88910438D02*
X147407428Y-88862819D01*
X147407428Y-88862819D02*
X147502666Y-88862819D01*
X147502666Y-88862819D02*
X147645523Y-88910438D01*
X147645523Y-88910438D02*
X147693142Y-88958057D01*
X148645523Y-89862819D02*
X148074095Y-89862819D01*
X148359809Y-89862819D02*
X148359809Y-88862819D01*
X148359809Y-88862819D02*
X148264571Y-89005676D01*
X148264571Y-89005676D02*
X148169333Y-89100914D01*
X148169333Y-89100914D02*
X148074095Y-89148533D01*
X149502666Y-89196152D02*
X149502666Y-89862819D01*
X149264571Y-88815200D02*
X149026476Y-89529485D01*
X149026476Y-89529485D02*
X149645523Y-89529485D01*
X166997142Y-74019580D02*
X166949523Y-74067200D01*
X166949523Y-74067200D02*
X166806666Y-74114819D01*
X166806666Y-74114819D02*
X166711428Y-74114819D01*
X166711428Y-74114819D02*
X166568571Y-74067200D01*
X166568571Y-74067200D02*
X166473333Y-73971961D01*
X166473333Y-73971961D02*
X166425714Y-73876723D01*
X166425714Y-73876723D02*
X166378095Y-73686247D01*
X166378095Y-73686247D02*
X166378095Y-73543390D01*
X166378095Y-73543390D02*
X166425714Y-73352914D01*
X166425714Y-73352914D02*
X166473333Y-73257676D01*
X166473333Y-73257676D02*
X166568571Y-73162438D01*
X166568571Y-73162438D02*
X166711428Y-73114819D01*
X166711428Y-73114819D02*
X166806666Y-73114819D01*
X166806666Y-73114819D02*
X166949523Y-73162438D01*
X166949523Y-73162438D02*
X166997142Y-73210057D01*
X167949523Y-74114819D02*
X167378095Y-74114819D01*
X167663809Y-74114819D02*
X167663809Y-73114819D01*
X167663809Y-73114819D02*
X167568571Y-73257676D01*
X167568571Y-73257676D02*
X167473333Y-73352914D01*
X167473333Y-73352914D02*
X167378095Y-73400533D01*
X168282857Y-73114819D02*
X168901904Y-73114819D01*
X168901904Y-73114819D02*
X168568571Y-73495771D01*
X168568571Y-73495771D02*
X168711428Y-73495771D01*
X168711428Y-73495771D02*
X168806666Y-73543390D01*
X168806666Y-73543390D02*
X168854285Y-73591009D01*
X168854285Y-73591009D02*
X168901904Y-73686247D01*
X168901904Y-73686247D02*
X168901904Y-73924342D01*
X168901904Y-73924342D02*
X168854285Y-74019580D01*
X168854285Y-74019580D02*
X168806666Y-74067200D01*
X168806666Y-74067200D02*
X168711428Y-74114819D01*
X168711428Y-74114819D02*
X168425714Y-74114819D01*
X168425714Y-74114819D02*
X168330476Y-74067200D01*
X168330476Y-74067200D02*
X168282857Y-74019580D01*
X166743142Y-76559580D02*
X166695523Y-76607200D01*
X166695523Y-76607200D02*
X166552666Y-76654819D01*
X166552666Y-76654819D02*
X166457428Y-76654819D01*
X166457428Y-76654819D02*
X166314571Y-76607200D01*
X166314571Y-76607200D02*
X166219333Y-76511961D01*
X166219333Y-76511961D02*
X166171714Y-76416723D01*
X166171714Y-76416723D02*
X166124095Y-76226247D01*
X166124095Y-76226247D02*
X166124095Y-76083390D01*
X166124095Y-76083390D02*
X166171714Y-75892914D01*
X166171714Y-75892914D02*
X166219333Y-75797676D01*
X166219333Y-75797676D02*
X166314571Y-75702438D01*
X166314571Y-75702438D02*
X166457428Y-75654819D01*
X166457428Y-75654819D02*
X166552666Y-75654819D01*
X166552666Y-75654819D02*
X166695523Y-75702438D01*
X166695523Y-75702438D02*
X166743142Y-75750057D01*
X167695523Y-76654819D02*
X167124095Y-76654819D01*
X167409809Y-76654819D02*
X167409809Y-75654819D01*
X167409809Y-75654819D02*
X167314571Y-75797676D01*
X167314571Y-75797676D02*
X167219333Y-75892914D01*
X167219333Y-75892914D02*
X167124095Y-75940533D01*
X168076476Y-75750057D02*
X168124095Y-75702438D01*
X168124095Y-75702438D02*
X168219333Y-75654819D01*
X168219333Y-75654819D02*
X168457428Y-75654819D01*
X168457428Y-75654819D02*
X168552666Y-75702438D01*
X168552666Y-75702438D02*
X168600285Y-75750057D01*
X168600285Y-75750057D02*
X168647904Y-75845295D01*
X168647904Y-75845295D02*
X168647904Y-75940533D01*
X168647904Y-75940533D02*
X168600285Y-76083390D01*
X168600285Y-76083390D02*
X168028857Y-76654819D01*
X168028857Y-76654819D02*
X168647904Y-76654819D01*
X163949142Y-88751580D02*
X163901523Y-88799200D01*
X163901523Y-88799200D02*
X163758666Y-88846819D01*
X163758666Y-88846819D02*
X163663428Y-88846819D01*
X163663428Y-88846819D02*
X163520571Y-88799200D01*
X163520571Y-88799200D02*
X163425333Y-88703961D01*
X163425333Y-88703961D02*
X163377714Y-88608723D01*
X163377714Y-88608723D02*
X163330095Y-88418247D01*
X163330095Y-88418247D02*
X163330095Y-88275390D01*
X163330095Y-88275390D02*
X163377714Y-88084914D01*
X163377714Y-88084914D02*
X163425333Y-87989676D01*
X163425333Y-87989676D02*
X163520571Y-87894438D01*
X163520571Y-87894438D02*
X163663428Y-87846819D01*
X163663428Y-87846819D02*
X163758666Y-87846819D01*
X163758666Y-87846819D02*
X163901523Y-87894438D01*
X163901523Y-87894438D02*
X163949142Y-87942057D01*
X164901523Y-88846819D02*
X164330095Y-88846819D01*
X164615809Y-88846819D02*
X164615809Y-87846819D01*
X164615809Y-87846819D02*
X164520571Y-87989676D01*
X164520571Y-87989676D02*
X164425333Y-88084914D01*
X164425333Y-88084914D02*
X164330095Y-88132533D01*
X165520571Y-87846819D02*
X165615809Y-87846819D01*
X165615809Y-87846819D02*
X165711047Y-87894438D01*
X165711047Y-87894438D02*
X165758666Y-87942057D01*
X165758666Y-87942057D02*
X165806285Y-88037295D01*
X165806285Y-88037295D02*
X165853904Y-88227771D01*
X165853904Y-88227771D02*
X165853904Y-88465866D01*
X165853904Y-88465866D02*
X165806285Y-88656342D01*
X165806285Y-88656342D02*
X165758666Y-88751580D01*
X165758666Y-88751580D02*
X165711047Y-88799200D01*
X165711047Y-88799200D02*
X165615809Y-88846819D01*
X165615809Y-88846819D02*
X165520571Y-88846819D01*
X165520571Y-88846819D02*
X165425333Y-88799200D01*
X165425333Y-88799200D02*
X165377714Y-88751580D01*
X165377714Y-88751580D02*
X165330095Y-88656342D01*
X165330095Y-88656342D02*
X165282476Y-88465866D01*
X165282476Y-88465866D02*
X165282476Y-88227771D01*
X165282476Y-88227771D02*
X165330095Y-88037295D01*
X165330095Y-88037295D02*
X165377714Y-87942057D01*
X165377714Y-87942057D02*
X165425333Y-87894438D01*
X165425333Y-87894438D02*
X165520571Y-87846819D01*
X134707333Y-74273580D02*
X134659714Y-74321200D01*
X134659714Y-74321200D02*
X134516857Y-74368819D01*
X134516857Y-74368819D02*
X134421619Y-74368819D01*
X134421619Y-74368819D02*
X134278762Y-74321200D01*
X134278762Y-74321200D02*
X134183524Y-74225961D01*
X134183524Y-74225961D02*
X134135905Y-74130723D01*
X134135905Y-74130723D02*
X134088286Y-73940247D01*
X134088286Y-73940247D02*
X134088286Y-73797390D01*
X134088286Y-73797390D02*
X134135905Y-73606914D01*
X134135905Y-73606914D02*
X134183524Y-73511676D01*
X134183524Y-73511676D02*
X134278762Y-73416438D01*
X134278762Y-73416438D02*
X134421619Y-73368819D01*
X134421619Y-73368819D02*
X134516857Y-73368819D01*
X134516857Y-73368819D02*
X134659714Y-73416438D01*
X134659714Y-73416438D02*
X134707333Y-73464057D01*
X135183524Y-74368819D02*
X135374000Y-74368819D01*
X135374000Y-74368819D02*
X135469238Y-74321200D01*
X135469238Y-74321200D02*
X135516857Y-74273580D01*
X135516857Y-74273580D02*
X135612095Y-74130723D01*
X135612095Y-74130723D02*
X135659714Y-73940247D01*
X135659714Y-73940247D02*
X135659714Y-73559295D01*
X135659714Y-73559295D02*
X135612095Y-73464057D01*
X135612095Y-73464057D02*
X135564476Y-73416438D01*
X135564476Y-73416438D02*
X135469238Y-73368819D01*
X135469238Y-73368819D02*
X135278762Y-73368819D01*
X135278762Y-73368819D02*
X135183524Y-73416438D01*
X135183524Y-73416438D02*
X135135905Y-73464057D01*
X135135905Y-73464057D02*
X135088286Y-73559295D01*
X135088286Y-73559295D02*
X135088286Y-73797390D01*
X135088286Y-73797390D02*
X135135905Y-73892628D01*
X135135905Y-73892628D02*
X135183524Y-73940247D01*
X135183524Y-73940247D02*
X135278762Y-73987866D01*
X135278762Y-73987866D02*
X135469238Y-73987866D01*
X135469238Y-73987866D02*
X135564476Y-73940247D01*
X135564476Y-73940247D02*
X135612095Y-73892628D01*
X135612095Y-73892628D02*
X135659714Y-73797390D01*
X128375580Y-76366666D02*
X128423200Y-76414285D01*
X128423200Y-76414285D02*
X128470819Y-76557142D01*
X128470819Y-76557142D02*
X128470819Y-76652380D01*
X128470819Y-76652380D02*
X128423200Y-76795237D01*
X128423200Y-76795237D02*
X128327961Y-76890475D01*
X128327961Y-76890475D02*
X128232723Y-76938094D01*
X128232723Y-76938094D02*
X128042247Y-76985713D01*
X128042247Y-76985713D02*
X127899390Y-76985713D01*
X127899390Y-76985713D02*
X127708914Y-76938094D01*
X127708914Y-76938094D02*
X127613676Y-76890475D01*
X127613676Y-76890475D02*
X127518438Y-76795237D01*
X127518438Y-76795237D02*
X127470819Y-76652380D01*
X127470819Y-76652380D02*
X127470819Y-76557142D01*
X127470819Y-76557142D02*
X127518438Y-76414285D01*
X127518438Y-76414285D02*
X127566057Y-76366666D01*
X127899390Y-75795237D02*
X127851771Y-75890475D01*
X127851771Y-75890475D02*
X127804152Y-75938094D01*
X127804152Y-75938094D02*
X127708914Y-75985713D01*
X127708914Y-75985713D02*
X127661295Y-75985713D01*
X127661295Y-75985713D02*
X127566057Y-75938094D01*
X127566057Y-75938094D02*
X127518438Y-75890475D01*
X127518438Y-75890475D02*
X127470819Y-75795237D01*
X127470819Y-75795237D02*
X127470819Y-75604761D01*
X127470819Y-75604761D02*
X127518438Y-75509523D01*
X127518438Y-75509523D02*
X127566057Y-75461904D01*
X127566057Y-75461904D02*
X127661295Y-75414285D01*
X127661295Y-75414285D02*
X127708914Y-75414285D01*
X127708914Y-75414285D02*
X127804152Y-75461904D01*
X127804152Y-75461904D02*
X127851771Y-75509523D01*
X127851771Y-75509523D02*
X127899390Y-75604761D01*
X127899390Y-75604761D02*
X127899390Y-75795237D01*
X127899390Y-75795237D02*
X127947009Y-75890475D01*
X127947009Y-75890475D02*
X127994628Y-75938094D01*
X127994628Y-75938094D02*
X128089866Y-75985713D01*
X128089866Y-75985713D02*
X128280342Y-75985713D01*
X128280342Y-75985713D02*
X128375580Y-75938094D01*
X128375580Y-75938094D02*
X128423200Y-75890475D01*
X128423200Y-75890475D02*
X128470819Y-75795237D01*
X128470819Y-75795237D02*
X128470819Y-75604761D01*
X128470819Y-75604761D02*
X128423200Y-75509523D01*
X128423200Y-75509523D02*
X128375580Y-75461904D01*
X128375580Y-75461904D02*
X128280342Y-75414285D01*
X128280342Y-75414285D02*
X128089866Y-75414285D01*
X128089866Y-75414285D02*
X127994628Y-75461904D01*
X127994628Y-75461904D02*
X127947009Y-75509523D01*
X127947009Y-75509523D02*
X127899390Y-75604761D01*
X164425333Y-86465580D02*
X164377714Y-86513200D01*
X164377714Y-86513200D02*
X164234857Y-86560819D01*
X164234857Y-86560819D02*
X164139619Y-86560819D01*
X164139619Y-86560819D02*
X163996762Y-86513200D01*
X163996762Y-86513200D02*
X163901524Y-86417961D01*
X163901524Y-86417961D02*
X163853905Y-86322723D01*
X163853905Y-86322723D02*
X163806286Y-86132247D01*
X163806286Y-86132247D02*
X163806286Y-85989390D01*
X163806286Y-85989390D02*
X163853905Y-85798914D01*
X163853905Y-85798914D02*
X163901524Y-85703676D01*
X163901524Y-85703676D02*
X163996762Y-85608438D01*
X163996762Y-85608438D02*
X164139619Y-85560819D01*
X164139619Y-85560819D02*
X164234857Y-85560819D01*
X164234857Y-85560819D02*
X164377714Y-85608438D01*
X164377714Y-85608438D02*
X164425333Y-85656057D01*
X164758667Y-85560819D02*
X165425333Y-85560819D01*
X165425333Y-85560819D02*
X164996762Y-86560819D01*
X147661333Y-75289580D02*
X147613714Y-75337200D01*
X147613714Y-75337200D02*
X147470857Y-75384819D01*
X147470857Y-75384819D02*
X147375619Y-75384819D01*
X147375619Y-75384819D02*
X147232762Y-75337200D01*
X147232762Y-75337200D02*
X147137524Y-75241961D01*
X147137524Y-75241961D02*
X147089905Y-75146723D01*
X147089905Y-75146723D02*
X147042286Y-74956247D01*
X147042286Y-74956247D02*
X147042286Y-74813390D01*
X147042286Y-74813390D02*
X147089905Y-74622914D01*
X147089905Y-74622914D02*
X147137524Y-74527676D01*
X147137524Y-74527676D02*
X147232762Y-74432438D01*
X147232762Y-74432438D02*
X147375619Y-74384819D01*
X147375619Y-74384819D02*
X147470857Y-74384819D01*
X147470857Y-74384819D02*
X147613714Y-74432438D01*
X147613714Y-74432438D02*
X147661333Y-74480057D01*
X148518476Y-74384819D02*
X148328000Y-74384819D01*
X148328000Y-74384819D02*
X148232762Y-74432438D01*
X148232762Y-74432438D02*
X148185143Y-74480057D01*
X148185143Y-74480057D02*
X148089905Y-74622914D01*
X148089905Y-74622914D02*
X148042286Y-74813390D01*
X148042286Y-74813390D02*
X148042286Y-75194342D01*
X148042286Y-75194342D02*
X148089905Y-75289580D01*
X148089905Y-75289580D02*
X148137524Y-75337200D01*
X148137524Y-75337200D02*
X148232762Y-75384819D01*
X148232762Y-75384819D02*
X148423238Y-75384819D01*
X148423238Y-75384819D02*
X148518476Y-75337200D01*
X148518476Y-75337200D02*
X148566095Y-75289580D01*
X148566095Y-75289580D02*
X148613714Y-75194342D01*
X148613714Y-75194342D02*
X148613714Y-74956247D01*
X148613714Y-74956247D02*
X148566095Y-74861009D01*
X148566095Y-74861009D02*
X148518476Y-74813390D01*
X148518476Y-74813390D02*
X148423238Y-74765771D01*
X148423238Y-74765771D02*
X148232762Y-74765771D01*
X148232762Y-74765771D02*
X148137524Y-74813390D01*
X148137524Y-74813390D02*
X148089905Y-74861009D01*
X148089905Y-74861009D02*
X148042286Y-74956247D01*
X147153333Y-78337580D02*
X147105714Y-78385200D01*
X147105714Y-78385200D02*
X146962857Y-78432819D01*
X146962857Y-78432819D02*
X146867619Y-78432819D01*
X146867619Y-78432819D02*
X146724762Y-78385200D01*
X146724762Y-78385200D02*
X146629524Y-78289961D01*
X146629524Y-78289961D02*
X146581905Y-78194723D01*
X146581905Y-78194723D02*
X146534286Y-78004247D01*
X146534286Y-78004247D02*
X146534286Y-77861390D01*
X146534286Y-77861390D02*
X146581905Y-77670914D01*
X146581905Y-77670914D02*
X146629524Y-77575676D01*
X146629524Y-77575676D02*
X146724762Y-77480438D01*
X146724762Y-77480438D02*
X146867619Y-77432819D01*
X146867619Y-77432819D02*
X146962857Y-77432819D01*
X146962857Y-77432819D02*
X147105714Y-77480438D01*
X147105714Y-77480438D02*
X147153333Y-77528057D01*
X148010476Y-77766152D02*
X148010476Y-78432819D01*
X147772381Y-77385200D02*
X147534286Y-78099485D01*
X147534286Y-78099485D02*
X148153333Y-78099485D01*
X125835580Y-48172666D02*
X125883200Y-48220285D01*
X125883200Y-48220285D02*
X125930819Y-48363142D01*
X125930819Y-48363142D02*
X125930819Y-48458380D01*
X125930819Y-48458380D02*
X125883200Y-48601237D01*
X125883200Y-48601237D02*
X125787961Y-48696475D01*
X125787961Y-48696475D02*
X125692723Y-48744094D01*
X125692723Y-48744094D02*
X125502247Y-48791713D01*
X125502247Y-48791713D02*
X125359390Y-48791713D01*
X125359390Y-48791713D02*
X125168914Y-48744094D01*
X125168914Y-48744094D02*
X125073676Y-48696475D01*
X125073676Y-48696475D02*
X124978438Y-48601237D01*
X124978438Y-48601237D02*
X124930819Y-48458380D01*
X124930819Y-48458380D02*
X124930819Y-48363142D01*
X124930819Y-48363142D02*
X124978438Y-48220285D01*
X124978438Y-48220285D02*
X125026057Y-48172666D01*
X124930819Y-47839332D02*
X124930819Y-47220285D01*
X124930819Y-47220285D02*
X125311771Y-47553618D01*
X125311771Y-47553618D02*
X125311771Y-47410761D01*
X125311771Y-47410761D02*
X125359390Y-47315523D01*
X125359390Y-47315523D02*
X125407009Y-47267904D01*
X125407009Y-47267904D02*
X125502247Y-47220285D01*
X125502247Y-47220285D02*
X125740342Y-47220285D01*
X125740342Y-47220285D02*
X125835580Y-47267904D01*
X125835580Y-47267904D02*
X125883200Y-47315523D01*
X125883200Y-47315523D02*
X125930819Y-47410761D01*
X125930819Y-47410761D02*
X125930819Y-47696475D01*
X125930819Y-47696475D02*
X125883200Y-47791713D01*
X125883200Y-47791713D02*
X125835580Y-47839332D01*
X128629580Y-58994166D02*
X128677200Y-59041785D01*
X128677200Y-59041785D02*
X128724819Y-59184642D01*
X128724819Y-59184642D02*
X128724819Y-59279880D01*
X128724819Y-59279880D02*
X128677200Y-59422737D01*
X128677200Y-59422737D02*
X128581961Y-59517975D01*
X128581961Y-59517975D02*
X128486723Y-59565594D01*
X128486723Y-59565594D02*
X128296247Y-59613213D01*
X128296247Y-59613213D02*
X128153390Y-59613213D01*
X128153390Y-59613213D02*
X127962914Y-59565594D01*
X127962914Y-59565594D02*
X127867676Y-59517975D01*
X127867676Y-59517975D02*
X127772438Y-59422737D01*
X127772438Y-59422737D02*
X127724819Y-59279880D01*
X127724819Y-59279880D02*
X127724819Y-59184642D01*
X127724819Y-59184642D02*
X127772438Y-59041785D01*
X127772438Y-59041785D02*
X127820057Y-58994166D01*
X127820057Y-58613213D02*
X127772438Y-58565594D01*
X127772438Y-58565594D02*
X127724819Y-58470356D01*
X127724819Y-58470356D02*
X127724819Y-58232261D01*
X127724819Y-58232261D02*
X127772438Y-58137023D01*
X127772438Y-58137023D02*
X127820057Y-58089404D01*
X127820057Y-58089404D02*
X127915295Y-58041785D01*
X127915295Y-58041785D02*
X128010533Y-58041785D01*
X128010533Y-58041785D02*
X128153390Y-58089404D01*
X128153390Y-58089404D02*
X128724819Y-58660832D01*
X128724819Y-58660832D02*
X128724819Y-58041785D01*
X128629580Y-48172666D02*
X128677200Y-48220285D01*
X128677200Y-48220285D02*
X128724819Y-48363142D01*
X128724819Y-48363142D02*
X128724819Y-48458380D01*
X128724819Y-48458380D02*
X128677200Y-48601237D01*
X128677200Y-48601237D02*
X128581961Y-48696475D01*
X128581961Y-48696475D02*
X128486723Y-48744094D01*
X128486723Y-48744094D02*
X128296247Y-48791713D01*
X128296247Y-48791713D02*
X128153390Y-48791713D01*
X128153390Y-48791713D02*
X127962914Y-48744094D01*
X127962914Y-48744094D02*
X127867676Y-48696475D01*
X127867676Y-48696475D02*
X127772438Y-48601237D01*
X127772438Y-48601237D02*
X127724819Y-48458380D01*
X127724819Y-48458380D02*
X127724819Y-48363142D01*
X127724819Y-48363142D02*
X127772438Y-48220285D01*
X127772438Y-48220285D02*
X127820057Y-48172666D01*
X128724819Y-47220285D02*
X128724819Y-47791713D01*
X128724819Y-47505999D02*
X127724819Y-47505999D01*
X127724819Y-47505999D02*
X127867676Y-47601237D01*
X127867676Y-47601237D02*
X127962914Y-47696475D01*
X127962914Y-47696475D02*
X128010533Y-47791713D01*
D12*
%TO.C,J2*%
X165032000Y-118331000D02*
X166048000Y-118331000D01*
X166048000Y-118331000D02*
X165540000Y-117823000D01*
X165540000Y-117823000D02*
X165032000Y-118331000D01*
X161260000Y-117455000D02*
X173190000Y-117455000D01*
X176690000Y-117455000D02*
X180130000Y-117455000D01*
X161260000Y-101435000D02*
X161260000Y-117455000D01*
X161260000Y-101435000D02*
X173190000Y-101435000D01*
X176690000Y-101435000D02*
X180130000Y-101435000D01*
X180130000Y-101435000D02*
X180130000Y-117455000D01*
%TO.C,J1*%
X124208000Y-100829000D02*
X123192000Y-100829000D01*
X123192000Y-100829000D02*
X123700000Y-101337000D01*
X123700000Y-101337000D02*
X124208000Y-100829000D01*
X127980000Y-101705000D02*
X116050000Y-101705000D01*
X112550000Y-101705000D02*
X109110000Y-101705000D01*
X127980000Y-117725000D02*
X127980000Y-101705000D01*
X127980000Y-117725000D02*
X116050000Y-117725000D01*
X112550000Y-117725000D02*
X109110000Y-117725000D01*
X109110000Y-117725000D02*
X109110000Y-101705000D01*
%TO.C,U6*%
X142320000Y-80410000D02*
X146080000Y-80410000D01*
X142320000Y-87230000D02*
X146080000Y-87230000D01*
X146080000Y-80410000D02*
X146080000Y-81670000D01*
X146080000Y-87230000D02*
X146080000Y-85970000D01*
X141040000Y-80510000D02*
X140800000Y-80180000D01*
X141280000Y-80180000D01*
X141040000Y-80510000D01*
G36*
X141040000Y-80510000D02*
G01*
X140800000Y-80180000D01*
X141280000Y-80180000D01*
X141040000Y-80510000D01*
G37*
%TO.C,U5*%
X160100000Y-77870000D02*
X163860000Y-77870000D01*
X160100000Y-84690000D02*
X163860000Y-84690000D01*
X163860000Y-77870000D02*
X163860000Y-79130000D01*
X163860000Y-84690000D02*
X163860000Y-83430000D01*
X158820000Y-77970000D02*
X158580000Y-77640000D01*
X159060000Y-77640000D01*
X158820000Y-77970000D01*
G36*
X158820000Y-77970000D02*
G01*
X158580000Y-77640000D01*
X159060000Y-77640000D01*
X158820000Y-77970000D01*
G37*
%TO.C,U4*%
X162495000Y-59680000D02*
X160545000Y-59680000D01*
X162495000Y-59680000D02*
X164445000Y-59680000D01*
X162495000Y-69800000D02*
X160545000Y-69800000D01*
X162495000Y-69800000D02*
X164445000Y-69800000D01*
X159795000Y-59735000D02*
X159555000Y-59405000D01*
X160035000Y-59405000D01*
X159795000Y-59735000D01*
G36*
X159795000Y-59735000D02*
G01*
X159555000Y-59405000D01*
X160035000Y-59405000D01*
X159795000Y-59735000D01*
G37*
%TO.C,U3*%
X130580000Y-68455000D02*
X131580000Y-68455000D01*
X130580000Y-67675000D02*
X130580000Y-68455000D01*
X130580000Y-49130000D02*
X130200000Y-49130000D01*
X148820000Y-68455000D02*
X147820000Y-68455000D01*
X148820000Y-67675000D02*
X148820000Y-68455000D01*
X130580000Y-42710000D02*
X130580000Y-49130000D01*
X130580000Y-42710000D02*
X148820000Y-42710000D01*
X148820000Y-42710000D02*
X148820000Y-49130000D01*
%TO.C,U2*%
X134640000Y-78740000D02*
X134640000Y-76790000D01*
X134640000Y-78740000D02*
X134640000Y-80690000D01*
X129520000Y-78740000D02*
X129520000Y-76790000D01*
X129520000Y-78740000D02*
X129520000Y-80690000D01*
X134875000Y-76280000D02*
X134545000Y-76040000D01*
X134875000Y-75800000D01*
X134875000Y-76280000D01*
G36*
X134875000Y-76280000D02*
G01*
X134545000Y-76040000D01*
X134875000Y-75800000D01*
X134875000Y-76280000D01*
G37*
%TO.C,U1*%
X133640000Y-88724500D02*
X133640000Y-88074500D01*
X133640000Y-88724500D02*
X133640000Y-89374500D01*
X130520000Y-88724500D02*
X130520000Y-88074500D01*
X130520000Y-88724500D02*
X130520000Y-89374500D01*
X133920000Y-87802000D02*
X133590000Y-87562000D01*
X133920000Y-87322000D01*
X133920000Y-87802000D01*
G36*
X133920000Y-87802000D02*
G01*
X133590000Y-87562000D01*
X133920000Y-87322000D01*
X133920000Y-87802000D01*
G37*
%TO.C,R27*%
X132254724Y-85104500D02*
X131745276Y-85104500D01*
X132254724Y-84059500D02*
X131745276Y-84059500D01*
%TO.C,R7*%
X123294224Y-88522500D02*
X122784776Y-88522500D01*
X123294224Y-87477500D02*
X122784776Y-87477500D01*
%TO.C,R6*%
X123429500Y-90794724D02*
X123429500Y-90285276D01*
X124474500Y-90794724D02*
X124474500Y-90285276D01*
%TO.C,R5*%
X123342224Y-72919500D02*
X122832776Y-72919500D01*
X123342224Y-71874500D02*
X122832776Y-71874500D01*
%TO.C,R4*%
X126223500Y-55476224D02*
X126223500Y-54966776D01*
X127268500Y-55476224D02*
X127268500Y-54966776D01*
%TO.C,R3*%
X123477500Y-75342224D02*
X123477500Y-74832776D01*
X124522500Y-75342224D02*
X124522500Y-74832776D01*
%TO.C,R2*%
X124310224Y-60212500D02*
X123800776Y-60212500D01*
X124310224Y-59167500D02*
X123800776Y-59167500D01*
%TO.C,R1*%
X122833224Y-56919500D02*
X122323776Y-56919500D01*
X122833224Y-55874500D02*
X122323776Y-55874500D01*
%TO.C,J6*%
X119620000Y-82800000D02*
X118315000Y-82800000D01*
X118350000Y-82800000D02*
X109460000Y-82800000D01*
X109460000Y-82800000D02*
X109460000Y-96135000D01*
X108888500Y-82800000D02*
X108888500Y-96135000D01*
X119620000Y-96135000D02*
X119620000Y-82800000D01*
X109460000Y-96135000D02*
X119620000Y-96135000D01*
%TO.C,J5*%
X119620000Y-66800000D02*
X118315000Y-66800000D01*
X118350000Y-66800000D02*
X109460000Y-66800000D01*
X109460000Y-66800000D02*
X109460000Y-80135000D01*
X108888500Y-66800000D02*
X108888500Y-80135000D01*
X119620000Y-80135000D02*
X119620000Y-66800000D01*
X109460000Y-80135000D02*
X119620000Y-80135000D01*
%TO.C,J4*%
X119665750Y-50800000D02*
X118360750Y-50800000D01*
X118395750Y-50800000D02*
X109505750Y-50800000D01*
X109505750Y-50800000D02*
X109505750Y-64135000D01*
X108934250Y-50800000D02*
X108934250Y-64135000D01*
X119665750Y-64135000D02*
X119665750Y-50800000D01*
X109505750Y-64135000D02*
X119665750Y-64135000D01*
%TO.C,J3*%
X179950000Y-52780000D02*
X179950000Y-81780000D01*
X180450000Y-81283500D02*
X180450000Y-53280000D01*
X170950000Y-52780000D02*
X179950000Y-52780000D01*
X170950000Y-81780000D02*
X170950000Y-52780000D01*
X179950000Y-81780000D02*
X170950000Y-81780000D01*
%TO.C,C15*%
X144533233Y-91184000D02*
X144825767Y-91184000D01*
X144533233Y-92204000D02*
X144825767Y-92204000D01*
%TO.C,C14*%
X144540248Y-88673000D02*
X145062752Y-88673000D01*
X144540248Y-90143000D02*
X145062752Y-90143000D01*
%TO.C,C13*%
X163801248Y-72925000D02*
X164323752Y-72925000D01*
X163801248Y-74395000D02*
X164323752Y-74395000D01*
%TO.C,C12*%
X163837233Y-75690000D02*
X164129767Y-75690000D01*
X163837233Y-76710000D02*
X164129767Y-76710000D01*
%TO.C,C10*%
X161143733Y-87882000D02*
X161436267Y-87882000D01*
X161143733Y-88902000D02*
X161436267Y-88902000D01*
%TO.C,C9*%
X131933733Y-73404000D02*
X132226267Y-73404000D01*
X131933733Y-74424000D02*
X132226267Y-74424000D01*
%TO.C,C8*%
X127506000Y-79039767D02*
X127506000Y-78747233D01*
X128526000Y-79039767D02*
X128526000Y-78747233D01*
%TO.C,C7*%
X161028748Y-85371000D02*
X161551252Y-85371000D01*
X161028748Y-86841000D02*
X161551252Y-86841000D01*
%TO.C,C6*%
X144518748Y-74195000D02*
X145041252Y-74195000D01*
X144518748Y-75665000D02*
X145041252Y-75665000D01*
%TO.C,C4*%
X144480233Y-77468000D02*
X144772767Y-77468000D01*
X144480233Y-78488000D02*
X144772767Y-78488000D01*
%TO.C,C3*%
X124741000Y-51293752D02*
X124741000Y-50771248D01*
X126211000Y-51293752D02*
X126211000Y-50771248D01*
%TO.C,C2*%
X127256000Y-58681233D02*
X127256000Y-58973767D01*
X126236000Y-58681233D02*
X126236000Y-58973767D01*
%TO.C,C1*%
X127760000Y-51046767D02*
X127760000Y-50754233D01*
X128780000Y-51046767D02*
X128780000Y-50754233D01*
%TD*%
%LPC*%
D13*
%TO.C,J2*%
X171890000Y-115160000D03*
X171890000Y-103730000D03*
D14*
X165540000Y-113890000D03*
D15*
X163000000Y-112620000D03*
X165540000Y-111350000D03*
X163000000Y-110080000D03*
X165540000Y-108810000D03*
X163000000Y-107540000D03*
X165540000Y-106270000D03*
X163000000Y-105000000D03*
D16*
X174940000Y-117215000D03*
X174940000Y-101675000D03*
%TD*%
D13*
%TO.C,J1*%
X117350000Y-104000000D03*
X117350000Y-115430000D03*
D14*
X123700000Y-105270000D03*
D15*
X126240000Y-106540000D03*
X123700000Y-107810000D03*
X126240000Y-109080000D03*
X123700000Y-110350000D03*
X126240000Y-111620000D03*
X123700000Y-112890000D03*
X126240000Y-114160000D03*
D16*
X114300000Y-101945000D03*
X114300000Y-117485000D03*
%TD*%
D17*
%TO.C,U9*%
X157360000Y-50038000D03*
D18*
X166370000Y-52578000D03*
D19*
X158690000Y-52578000D03*
X159960000Y-50038000D03*
X161230000Y-52578000D03*
X162500000Y-50038000D03*
X163770000Y-52578000D03*
X165040000Y-50038000D03*
%TD*%
D20*
%TO.C,U6*%
X141020000Y-81520000D03*
X141020000Y-83820000D03*
D21*
X147320000Y-83820000D03*
D20*
X141020000Y-86120000D03*
%TD*%
%TO.C,U5*%
X158800000Y-78980000D03*
X158800000Y-81280000D03*
D21*
X165100000Y-81280000D03*
D20*
X158800000Y-83580000D03*
%TD*%
D22*
%TO.C,U4*%
X160020000Y-60295000D03*
X160020000Y-61565000D03*
X160020000Y-62835000D03*
X160020000Y-64105000D03*
X160020000Y-65375000D03*
X160020000Y-66645000D03*
X160020000Y-67915000D03*
X160020000Y-69185000D03*
X164970000Y-69185000D03*
X164970000Y-67915000D03*
X164970000Y-66645000D03*
X164970000Y-65375000D03*
X164970000Y-64105000D03*
X164970000Y-62835000D03*
X164970000Y-61565000D03*
X164970000Y-60295000D03*
%TD*%
D23*
%TO.C,U3*%
X138700000Y-57820000D03*
D24*
X148350000Y-50320000D03*
X148350000Y-51590000D03*
X148350000Y-52860000D03*
X148350000Y-54130000D03*
X148350000Y-55400000D03*
X148350000Y-56670000D03*
X148350000Y-57940000D03*
X148350000Y-59210000D03*
X148350000Y-60480000D03*
X148350000Y-61750000D03*
X148350000Y-63020000D03*
X148350000Y-64290000D03*
X148350000Y-65560000D03*
X148350000Y-66830000D03*
D25*
X145415000Y-67980000D03*
X144145000Y-67980000D03*
X142875000Y-67980000D03*
X141605000Y-67980000D03*
X140335000Y-67980000D03*
X139065000Y-67980000D03*
X137795000Y-67980000D03*
X136525000Y-67980000D03*
X135255000Y-67980000D03*
X133985000Y-67980000D03*
D24*
X131050000Y-66830000D03*
X131050000Y-65560000D03*
X131050000Y-64290000D03*
X131050000Y-63020000D03*
X131050000Y-61750000D03*
X131050000Y-60480000D03*
X131050000Y-59210000D03*
X131050000Y-57940000D03*
X131050000Y-56670000D03*
X131050000Y-55400000D03*
X131050000Y-54130000D03*
X131050000Y-52860000D03*
X131050000Y-51590000D03*
X131050000Y-50320000D03*
%TD*%
D26*
%TO.C,U2*%
X133985000Y-76265000D03*
X132715000Y-76265000D03*
X131445000Y-76265000D03*
X130175000Y-76265000D03*
X130175000Y-81215000D03*
X131445000Y-81215000D03*
X132715000Y-81215000D03*
X133985000Y-81215000D03*
%TD*%
D27*
%TO.C,U1*%
X133030000Y-87787000D03*
X131130000Y-87787000D03*
X132080000Y-89662000D03*
%TD*%
D28*
%TO.C,R27*%
X132912500Y-84582000D03*
X131087500Y-84582000D03*
%TD*%
%TO.C,R7*%
X123952000Y-88000000D03*
X122127000Y-88000000D03*
%TD*%
D29*
%TO.C,R6*%
X123952000Y-91452500D03*
X123952000Y-89627500D03*
%TD*%
D28*
%TO.C,R5*%
X124000000Y-72397000D03*
X122175000Y-72397000D03*
%TD*%
D29*
%TO.C,R4*%
X126746000Y-56134000D03*
X126746000Y-54309000D03*
%TD*%
%TO.C,R3*%
X124000000Y-76000000D03*
X124000000Y-74175000D03*
%TD*%
D28*
%TO.C,R2*%
X124968000Y-59690000D03*
X123143000Y-59690000D03*
%TD*%
%TO.C,R1*%
X123491000Y-56397000D03*
X121666000Y-56397000D03*
%TD*%
D30*
%TO.C,J6*%
X117000000Y-85000000D03*
X112000000Y-88500000D03*
X117000000Y-92000000D03*
%TD*%
%TO.C,J5*%
X117000000Y-69000000D03*
X112000000Y-72500000D03*
X117000000Y-76000000D03*
%TD*%
%TO.C,J4*%
X117045750Y-53000000D03*
X112045750Y-56500000D03*
X117045750Y-60000000D03*
%TD*%
D31*
%TO.C,J3*%
X177800000Y-54580000D03*
X172800000Y-58080000D03*
X177800000Y-61580000D03*
X172800000Y-65080000D03*
X177800000Y-68580000D03*
X172800000Y-72080000D03*
X177800000Y-75580000D03*
X172800000Y-79080000D03*
%TD*%
D32*
%TO.C,H5*%
X113000000Y-123000000D03*
%TD*%
%TO.C,H3*%
X176000000Y-123000000D03*
%TD*%
%TO.C,H2*%
X176000000Y-46000000D03*
%TD*%
%TO.C,H1*%
X113000000Y-46000000D03*
%TD*%
D33*
%TO.C,C15*%
X143817000Y-91694000D03*
X145542000Y-91694000D03*
%TD*%
D34*
%TO.C,C14*%
X143764000Y-89408000D03*
X145839000Y-89408000D03*
%TD*%
%TO.C,C13*%
X163025000Y-73660000D03*
X165100000Y-73660000D03*
%TD*%
D33*
%TO.C,C12*%
X163121000Y-76200000D03*
X164846000Y-76200000D03*
%TD*%
%TO.C,C10*%
X160427500Y-88392000D03*
X162152500Y-88392000D03*
%TD*%
%TO.C,C9*%
X131217500Y-73914000D03*
X132942500Y-73914000D03*
%TD*%
D35*
%TO.C,C8*%
X128016000Y-79756000D03*
X128016000Y-78031000D03*
%TD*%
D34*
%TO.C,C7*%
X160252500Y-86106000D03*
X162327500Y-86106000D03*
%TD*%
%TO.C,C6*%
X143742500Y-74930000D03*
X145817500Y-74930000D03*
%TD*%
D33*
%TO.C,C4*%
X143764000Y-77978000D03*
X145489000Y-77978000D03*
%TD*%
D36*
%TO.C,C3*%
X125476000Y-52070000D03*
X125476000Y-49995000D03*
%TD*%
D37*
%TO.C,C2*%
X126746000Y-57965000D03*
X126746000Y-59690000D03*
%TD*%
D35*
%TO.C,C1*%
X128270000Y-51763000D03*
X128270000Y-50038000D03*
%TD*%
%LPD*%
M02*
