M48
; DRILL file {KiCad 8.0.8} date 2025-02-09T20:19:25+0100
; FORMAT={-:-/ absolute / inch / decimal}
; #@! TF.CreationDate,2025-02-09T20:19:25+01:00
; #@! TF.GenerationSoftware,Kicad,Pcbnew,8.0.8
; #@! TF.FileFunction,Plated,1,2,PTH
FMAT,2
INCH
; #@! TA.AperFunction,Plated,PTH,ViaDrill
T1C0.0197
; #@! TA.AperFunction,Plated,PTH,ComponentDrill
T2C0.0354
; #@! TA.AperFunction,Plated,PTH,ComponentDrill
T3C0.0433
; #@! TA.AperFunction,Plated,PTH,ComponentDrill
T4C0.0472
; #@! TA.AperFunction,Plated,PTH,ComponentDrill
T5C0.0571
; #@! TA.AperFunction,Plated,PTH,ComponentDrill
T6C0.0630
%
G90
G05
T1
X4.5276Y-3.2283
X4.8031Y-3.2283
X4.855Y-2.035
X5.04Y-3.23
X5.05Y-2.145
X5.0787Y-4.0157
X5.16Y-2.835
X5.2756Y-4.2126
X5.3543Y-3.189
X5.3937Y-2.9134
X5.665Y-3.67
X5.9449Y-3.3071
X5.985Y-2.04
X6.0236Y-3.0315
X6.12Y-2.305
X6.165Y-2.76
X6.2205Y-2.2441
X6.23Y-3.48
X6.24Y-1.86
X6.378Y-3.9764
X6.5354Y-2.2441
X6.6142Y-3.1102
X6.6142Y-4.0945
X6.9685Y-3.3071
T2
X4.4094Y-2.8543
X4.4094Y-3.4843
X4.4112Y-2.2244
X4.6063Y-2.7165
X4.6063Y-2.9921
X4.6063Y-3.3465
X4.6063Y-3.622
X4.6081Y-2.0866
X4.6081Y-2.3622
X4.8701Y-4.1445
X4.8701Y-4.2445
X4.8701Y-4.3445
X4.8701Y-4.4445
X4.9701Y-4.1945
X4.9701Y-4.2945
X4.9701Y-4.3945
X4.9701Y-4.4945
X6.4173Y-4.1339
X6.4173Y-4.2339
X6.4173Y-4.3339
X6.4173Y-4.4339
X6.5173Y-4.1839
X6.5173Y-4.2839
X6.5173Y-4.3839
X6.5173Y-4.4839
T3
X6.8031Y-2.2866
X6.8031Y-2.5622
X6.8031Y-3.1134
X7.0Y-2.1488
X7.0Y-2.4244
X7.0Y-2.7
X7.0Y-2.9756
T4
X6.8031Y-2.8378
T5
X6.2476Y-2.07
X6.2976Y-1.97
X6.3476Y-2.07
X6.3976Y-1.97
X6.4476Y-2.07
X6.4976Y-1.97
T6
X4.5Y-4.0136
X4.5Y-4.6254
X6.8874Y-4.003
X6.8874Y-4.6148
M30
